<?xml version="1.0" encoding="utf-8"?>
<svg x="0pt" y="1.19209e-07pt" width="1300pt" height="1300pt" viewBox="0 1.19209e-07 1300 1300" xmlns="http://www.w3.org/2000/svg" xmlns:xlink="http://www.w3.org/1999/xlink">
  <g id="1">
    <title>Layer 1</title>
    <g id="2">
      <title>Layer 2</title>
      <radialGradient cx="650" cy="650" r="650" fx="650" fy="650" gradientUnits="userSpaceOnUse" gradientTransform="matrix(-4.37114e-08,1,-1,-4.37114e-08,1300,2.84124e-05)" id="5">
        <stop style="stop-color:#76eda4;stop-opacity:1;"/>
        <stop offset="1" style="stop-color:#3a99aa;stop-opacity:1;"/>
      </radialGradient>
      <defs>
        <title>Path</title>
        <g id="3">
          <defs>
            <path id="4" d="M0,1.19209e-07 C0,1.19209e-07,1300,1.19209e-07,1300,1.19209e-07 C1300,1.19209e-07,1300,1300,1300,1300 C1300,1300,0,1300,0,1300 C0,1300,0,1.19209e-07,0,1.19209e-07 z"/>
          </defs>
          <use xlink:href="#4" style="fill:url(#5);fill-opacity:1;fill-rule:evenodd;opacity:1;stroke:none;"/>
        </g>
      </defs>
      <use xlink:href="#3"/>
    </g>
    <defs>
      <title>Path</title>
      <g id="6">
        <defs>
          <path id="7" d="M239.855,429.248 C239.855,429.248,297.98,480.115,297.98,480.115 C297.98,480.115,383.781,581.052,383.781,581.052 C383.781,581.052,390.746,635.181,390.746,635.181 C390.746,635.181,390.746,845.505,390.746,845.505 C390.746,845.505,390.746,1007.9,390.746,1007.9 C390.746,1007.9,373.98,1172.52,373.98,1172.52 C373.98,1172.52,216.882,1183.51,216.882,1183.51 C216.882,1183.51,228.23,922.673,228.23,922.673 C228.23,922.673,246.585,800.865,246.585,800.865 C246.585,800.865,239.042,623.287,239.042,623.287 C239.042,623.287,239.855,429.248,239.855,429.248 z"/>
        </defs>
        <use xlink:href="#7" style="fill:#000000;fill-opacity:1;fill-rule:nonzero;opacity:0.5;stroke:none;"/>
      </g>
    </defs>
    <use xlink:href="#6"/>
    <defs>
      <title>Path</title>
      <g id="8">
        <defs>
          <path id="9" d="M318.21,303.417 C318.21,303.417,359.934,263.568,359.934,263.568 C359.934,263.568,417.606,200.615,417.606,200.615 C417.606,200.615,505.414,172.834,505.414,172.834 C505.414,172.834,616.606,172.834,616.606,172.834 C616.606,172.834,735.861,172.834,735.861,172.834 C735.861,172.834,874.768,202.146,874.768,202.146 C874.768,202.146,926.882,225.214,926.882,225.214 C926.882,225.214,974.742,261.203,974.742,261.203 C974.742,261.203,1079.31,371.328,1079.31,371.328 C1079.31,371.328,1107.29,432.297,1107.29,432.297 C1107.29,432.297,1107.29,528.458,1107.29,528.458 C1107.29,528.458,1048.99,603.229,1048.99,603.229 C1048.99,603.229,957.861,705.365,957.861,705.365 C957.861,705.365,814.049,788.089,814.049,788.089 C814.049,788.089,680.492,812.537,680.492,812.537 C680.492,812.537,474.117,812.537,474.117,812.537 C474.117,812.537,481.153,747.552,481.153,747.552 C481.153,747.552,486.716,701.448,486.716,701.448 C486.716,701.448,478.835,682.25,478.835,682.25 C478.835,682.25,535.929,668.769,535.929,668.769 C535.929,668.769,661.039,656.844,661.039,656.844 C661.039,656.844,759.768,640.047,759.768,640.047 C759.768,640.047,840.2,600.709,840.2,600.709 C840.2,600.709,883.486,550.667,883.486,550.667 C883.486,550.667,898.533,505.797,898.533,505.797 C898.533,505.797,875.143,454.412,875.143,454.412 C875.143,454.412,826.085,392.089,826.085,392.089 C826.085,392.089,740.262,348.849,740.262,348.849 C740.262,348.849,636.45,346.328,636.45,346.328 C636.45,346.328,543.851,364.604,543.851,364.604 C543.851,364.604,452.986,378.682,452.986,378.682 C452.986,378.682,435.002,394.209,435.002,394.209 C435.002,394.209,426.476,444.177,426.476,444.177 C426.476,444.177,424.736,515.964,424.736,515.964 C424.736,515.964,384.71,471.75,384.71,471.75 C384.71,471.75,359.934,402.25,359.934,402.25 C359.934,402.25,318.21,370.495,318.21,370.495 C318.21,370.495,303.887,334.568,303.887,334.568 C303.887,334.568,318.21,303.417,318.21,303.417 z"/>
        </defs>
        <use xlink:href="#9" style="fill:#000000;fill-opacity:1;fill-rule:nonzero;opacity:0.5;stroke:none;"/>
      </g>
    </defs>
    <use xlink:href="#8"/>
    <g id="10">
      <title>Group</title>
      <g id="11">
        <title>Group</title>
        <linearGradient x1="-215.916" y1="166.533" x2="1564.28" y2="166.533" gradientUnits="userSpaceOnUse" id="14">
          <stop offset="0.0297045" style="stop-color:#070000;stop-opacity:1;"/>
          <stop offset="0.0297046" style="stop-color:#000000;stop-opacity:1;"/>
          <stop offset="1" style="stop-color:#ff0000;stop-opacity:1;"/>
        </linearGradient>
        <defs>
          <title>Shape 2</title>
          <g id="12">
            <defs>
              <path id="13" d="M456.118,71.2882 C459.588,69.0782,463.968,67.4082,468.018,69.0482 C470.868,70.4582,473.648,72.7082,474.558,75.8782 C476.238,81.5482,477.348,87.4182,477.428,93.3382 C478.538,105.388,479.018,117.528,481.178,129.468 C481.388,137.798,483.428,145.898,484.448,154.138 C485.068,157.608,485.948,162.348,490.058,163.188 C500.198,164.508,510.308,162.828,520.368,161.728 C527.778,161.988,534.888,159.528,542.258,159.428 C547.698,159.138,553.018,157.938,558.348,156.908 C562.928,156.528,567.538,156.348,572.108,155.718 C579.208,155.588,586.078,153.248,593.218,153.518 C599.708,152.658,606.298,153.048,612.748,151.878 C619.028,151.118,625.348,152.138,631.648,151.808 C637.918,151.368,644.258,152.208,650.468,150.938 C656.838,149.738,663.108,152.168,669.488,151.758 C678.648,151.268,687.818,151.698,696.978,151.398 C705.938,150.358,714.628,147.578,723.608,146.638 C732.558,146.288,741.508,146.528,750.458,146.598 C757.408,146.468,764.038,148.968,770.938,149.468 C779.988,150.088,788.058,154.698,796.858,156.478 C802.418,157.688,807.378,160.628,812.778,162.348 C818.678,164.258,824.118,167.368,830.118,169.028 C836.478,170.828,841.998,174.708,848.348,176.538 C853.728,178.058,858.858,180.278,864.128,182.148 C869.278,183.898,872.908,188.608,878.318,189.758 C882.558,190.898,887.418,190.208,891.148,192.898 C894.358,195.028,897.528,197.258,901.088,198.808 C908.568,201.938,915.798,205.808,922.268,210.708 C924.848,212.578,928.218,213.148,930.458,215.538 C931.838,216.918,933.488,217.978,935.268,218.798 C939.658,220.788,943.348,224.008,947.838,225.808 C949.378,229.248,952.768,231.118,955.488,233.508 C957.948,235.668,960.558,237.698,962.788,240.118 C965.678,243.478,966.138,248.058,967.658,252.078 C967.928,253.588,969.738,253.528,970.878,254.058 C969.398,255.208,967.638,256.168,966.748,257.898 C966.068,259.688,966.268,261.648,966.308,263.528 C964.258,264.358,962.048,264.608,959.868,264.678 C959.118,263.218,958.518,261.628,957.328,260.468 C954.898,258.888,951.708,260.058,949.228,258.608 C947.328,257.558,945.608,256.228,943.678,255.258 C940.358,253.568,936.558,253.228,933.248,251.558 C930.548,250.098,929.188,246.998,926.548,245.528 C923.648,244.578,920.538,243.928,918.328,241.648 C913.798,237.418,907.448,236.558,902.028,233.958 C896.268,231.178,889.898,229.858,884.338,226.628 C879.738,224.038,874.708,222.268,869.608,220.968 C864.728,220.058,858.668,221.158,855.248,216.728 C852.718,213.208,848.078,214.038,844.468,212.658 C835.348,208.818,825.718,206.358,816.608,202.468 C811.418,200.018,805.648,199.218,800.458,196.808 C795.858,194.798,790.808,194.108,786.318,191.848 C779.978,188.538,772.738,188.078,765.908,186.358 C753.398,184.608,740.718,184.198,728.088,184.718 C718.468,185.988,708.828,187.908,700.088,192.258 C694.148,195.328,687.338,195.778,681.298,198.528 C677.128,200.568,672.348,199.388,667.898,199.578 C660.408,199.708,653.508,195.878,646.078,195.798 C640.358,196.738,634.568,196.648,628.798,196.598 C619.818,197.198,613.478,189.108,604.858,187.988 C599.858,186.508,594.908,189.078,589.948,187.838 C582.618,186.718,574.788,189.348,567.888,185.968 C564.528,184.878,560.978,184.278,557.908,182.448 C556.848,182.828,555.838,183.318,554.788,183.708 C554.218,182.708,553.718,181.678,553.118,180.708 C548.448,181.068,544.068,178.788,539.418,179.188 C537.498,179.288,535.568,179.338,533.648,179.368 C533.568,179.718,533.398,180.418,533.308,180.768 C531.788,180.018,530.308,178.508,528.478,178.988 C524.238,179.908,519.948,180.868,515.578,180.408 C515.508,181.138,515.458,181.868,515.418,182.608 C513.868,182.218,512.258,181.258,510.648,181.898 C507.218,183.198,504.238,185.388,500.978,187.018 C499.518,187.948,497.658,188.548,496.688,190.068 C496.028,192.068,495.818,194.178,495.658,196.278 C498.978,196.518,501.718,198.488,504.788,199.528 C508.638,199.638,512.478,197.668,516.288,199.098 C521.368,200.858,526.718,200.268,531.938,199.668 C532.238,200.588,532.528,201.518,532.838,202.438 C527.418,201.218,524.008,206.418,518.998,207.158 C513.568,208.558,507.928,208.758,502.458,209.938 C499.528,210.458,496.588,211.798,493.588,210.928 C491.508,215.038,486.568,213.148,482.928,213.758 C477.258,214.528,471.848,216.538,466.198,217.428 C458.328,218.818,450.238,221.968,442.218,219.758 C440.898,223.838,436.148,223.618,432.658,224.288 C430.988,224.648,429.318,224.188,427.768,223.598 C426.788,225.528,425.778,227.468,424.448,229.188 C424.368,227.778,424.378,226.368,424.328,224.968 C422.048,224.598,419.738,224.628,417.488,225.128 C414.878,221.238,410.958,218.558,407.698,215.278 C404.338,211.868,399.308,210.448,396.588,206.378 C392.538,200.378,391.328,193.098,388.508,186.548 C387.148,182.968,382.648,182.258,380.848,178.978 C379.208,175.958,376.478,172.678,377.858,169.048 C379.288,164.318,380.958,159.318,384.688,155.868 C386.648,154.068,388.318,151.998,389.818,149.808 C391.388,147.448,393.978,146.068,395.808,143.958 C397.228,141.948,397.778,139.418,399.458,137.588 C405.028,133.098,408.518,126.498,410.788,119.818 C411.738,117.848,413.568,116.428,414.368,114.368 C415.908,110.628,416.658,106.508,419.088,103.178 C422.168,98.9982,426.088,95.5182,429.358,91.4882 C432.848,86.9582,437.778,83.9182,441.748,79.8682 C445.748,75.8082,451.388,74.2582,456.118,71.2882 M438.108,144.168 C434.828,148.498,431.968,153.378,431.118,158.838 C433.488,159.858,435.918,159.378,437.218,157.008 C438.538,157.708,439.898,158.338,441.228,159.058 C441.308,157.958,441.408,156.868,441.508,155.778 C443.028,155.438,445.048,155.678,445.968,154.118 C448.738,150.078,448.718,144.978,449.468,140.308 C445.418,140.388,440.868,140.768,438.108,144.168 z"/>
            </defs>
            <use xlink:href="#13" style="fill:url(#14);fill-opacity:1;fill-rule:evenodd;opacity:1;stroke:none;"/>
          </g>
        </defs>
        <use xlink:href="#12"/>
        <linearGradient x1="-601.798" y1="542.624" x2="1987.7" y2="542.624" gradientUnits="userSpaceOnUse" id="17">
          <stop offset="0.0297045" style="stop-color:#070000;stop-opacity:1;"/>
          <stop offset="0.0297046" style="stop-color:#000000;stop-opacity:1;"/>
          <stop offset="1" style="stop-color:#ff0000;stop-opacity:1;"/>
        </linearGradient>
        <defs>
          <title>Shape 3</title>
          <g id="15">
            <defs>
              <path id="16" d="M353.788,255.838 C356.658,252.958,360.738,251.538,364.748,251.468 C366.228,251.468,368.268,252.038,368.398,253.798 C368.868,256.668,368.648,259.748,367.248,262.338 C365.458,266.088,362.158,269.188,361.608,273.468 C360.538,281.138,355.448,287.288,351.478,293.658 C348.508,298.538,344.208,302.388,340.848,306.988 C339.718,308.238,338.728,310.018,336.938,310.348 C334.428,311.638,332.798,314.008,330.918,316.018 C326.378,321.338,321.508,326.798,319.648,333.708 C318.718,337.918,321.378,341.908,324.318,344.658 C332.458,352.138,339.698,360.698,348.858,367.008 C355.378,371.368,361.478,376.488,366.248,382.748 C369.128,386.608,372.988,390.058,374.068,394.958 C375.258,400.118,377.698,404.858,379.268,409.898 C380.098,413.158,383.478,415.258,383.538,418.758 C384.408,427.648,391.328,434.278,393.308,442.798 C395.728,450.978,400.588,458.168,403.188,466.278 C403.738,466.078,404.288,465.898,404.858,465.738 C405.458,467.518,406.068,469.338,407.198,470.878 C408.518,472.148,410.628,471.838,412.258,471.388 C415.228,464.688,414.068,457.148,414.648,450.048 C416.418,438.858,413.868,427.288,417.088,416.278 C419.088,409.848,419.588,402.948,422.698,396.898 C425.198,391.598,426.868,385.938,429.598,380.728 C431.228,377.878,430.748,373.828,433.798,371.898 C437.328,369.308,441.108,367.038,445.058,365.148 C449.578,363.018,454.688,363.738,459.518,363.538 C464.628,363.488,469.608,362.218,474.548,361.018 C482.348,359.778,490.328,359.838,498.058,358.118 C505.998,356.478,514.148,356.058,522.008,353.988 C529.398,351.988,537.178,351.868,544.478,349.478 C548.198,348.298,552.058,347.598,555.958,347.588 C561.368,347.668,566.258,344.768,571.638,344.618 C579.138,344.448,586.338,342.028,593.788,341.438 C597.758,341.158,601.578,339.978,605.188,338.318 C608.368,336.808,611.988,338.038,615.308,337.178 C618.198,336.238,620.868,334.728,623.768,333.768 C627.928,332.268,632.608,332.058,636.318,329.418 C639.558,327.238,643.158,325.548,647.068,325.028 C653.798,324.098,660.568,322.958,667.388,323.338 C673.818,323.758,680.138,322.048,686.568,322.488 C692.358,322.868,698.088,321.068,703.858,322.148 C709.548,323.038,715.228,320.758,720.898,322.008 C727.088,323.198,733.478,323.368,739.468,325.468 C745.928,327.638,753.008,327.568,759.148,330.738 C765.758,334.088,772.848,336.278,779.658,339.138 C787.238,340.688,793.798,345.428,799.048,350.948 C801.828,353.598,805.258,355.388,808.288,357.708 C814.368,362.438,821.418,365.708,827.448,370.518 C837.888,378.648,847.978,387.298,857.248,396.758 C861.408,402.318,866.488,407.348,869.288,413.808 C871.148,417.718,874.448,420.698,876.418,424.558 C879.198,430.208,884.038,434.438,887.018,439.968 C889.638,444.828,894.518,448.008,896.778,453.108 C898.358,456.508,900.028,459.868,901.698,463.238 C904.118,468.068,904.918,473.578,907.818,478.198 C910.608,482.638,912.348,487.758,912.448,493.038 C912.538,498.828,913.968,504.478,914.888,510.178 C916.388,521.898,915.948,534.188,911.068,545.138 C908.068,550.668,905.078,556.248,901.158,561.198 C893.158,572.808,886.528,585.518,876.438,595.538 C872.108,599.548,868.828,604.638,863.888,607.968 C858.918,611.288,854.788,615.748,849.478,618.538 C842.958,621.878,837.068,626.258,830.608,629.708 C825.518,632.698,819.998,634.888,815.048,638.128 C808.798,642.398,801.378,644.368,794.408,647.118 C794.788,647.838,795.198,648.548,795.618,649.268 C790.978,649.838,786.098,649.568,781.788,651.648 C777.298,653.978,772.108,653.288,767.318,654.378 C758.048,656.538,748.358,654.678,739.158,657.308 C733.228,659.338,726.788,657.778,720.888,659.968 C709.838,663.408,698.108,661.848,686.898,664.158 C675.798,665.078,665.048,668.638,653.848,668.698 C647.088,668.558,640.728,671.568,633.968,671.458 C626.418,671.408,618.818,672.078,611.328,670.758 C602.248,670.038,593.108,670.738,584.008,670.658 C577.948,671.868,571.608,670.978,565.688,672.938 C559.848,674.758,553.608,674.718,547.828,676.828 C539.718,678.618,532.378,683.288,523.938,683.598 C518.908,683.858,514.138,685.638,509.218,686.548 C506.028,687.218,502.468,687.718,500.198,690.308 C496.928,694.008,493.438,698.768,495.178,703.978 C495.848,719.138,495.248,734.338,495.488,749.518 C495.258,756.108,496.188,762.848,494.278,769.278 C493.038,773.108,494.598,777.098,493.778,780.978 C493.268,786.538,492.858,792.268,493.738,797.798 C496.598,801.958,502.448,801.618,506.938,801.608 C514.248,801.078,521.608,801.818,528.878,800.738 C540.688,800.278,552.528,800.988,564.338,800.318 C572.408,799.078,580.598,799.798,588.718,799.278 C596.458,798.168,604.288,798.568,612.088,798.378 C618.398,798.658,624.628,797.308,630.948,797.588 C638.278,797.918,645.758,796.798,652.968,798.628 C656.968,799.778,661.048,797.928,665.108,798.638 C672.238,799.958,679.568,799.958,686.738,798.918 C690.458,798.348,694.158,799.918,697.878,799.148 C702.198,798.418,706.538,797.708,710.938,797.908 C716.228,798.128,721.218,796.088,726.438,795.618 C730.358,795.238,734.088,793.618,738.068,793.598 C742.248,793.558,746.518,793.938,750.618,792.818 C755.238,791.478,760.618,791.988,764.378,788.498 C766.358,788.868,768.438,789.338,770.408,788.618 C777.408,786.398,784.768,788.208,791.908,788.338 C795.528,787.588,799.718,787.258,802.718,784.968 C806.268,778.718,813.148,775.878,818.228,771.128 C819.828,769.618,821.888,770.918,823.208,772.098 C823.218,770.608,823.258,769.118,823.358,767.658 C828.428,764.908,834.088,763.328,838.878,760.058 C848.878,753.498,859.018,747.038,870.028,742.298 C874.238,740.618,878.708,739.318,882.288,736.408 C887.738,732.008,894.358,729.438,899.878,725.128 C907.758,719.218,916.858,714.988,923.998,708.098 C927.318,704.988,931.428,702.938,935.008,700.178 C940.508,696.008,945.868,691.668,951.018,687.088 C953.858,684.358,958.238,684.008,960.798,680.898 C967.148,673.848,975.038,668.468,981.928,661.978 C1001.85,643.578,1020.62,623.928,1037.91,603.038 C1043.1,596.418,1048.09,589.528,1051.54,581.818 C1059.25,565.178,1068.93,549.568,1077.4,533.338 C1079.5,530.038,1082.05,526.988,1083.34,523.248 C1085.12,518.228,1087.91,513.468,1088.41,508.078 C1088.6,505.068,1089.89,502.338,1091.09,499.638 C1095.59,487.688,1097.22,474.908,1097.59,462.208 C1098.91,453.108,1096.98,443.978,1095.18,435.088 C1094.33,431.008,1093.69,426.868,1092.25,422.948 C1090.96,419.408,1088.07,416.598,1087.48,412.788 C1086.88,409.728,1084.16,407.548,1083.9,404.388 C1083.37,401.888,1083.72,399.078,1082.15,396.918 C1079.85,393.518,1077.18,390.278,1075.85,386.338 C1074.65,382.728,1073.11,379.228,1070.75,376.218 C1068.77,373.768,1068.47,370.558,1067.41,367.698 C1066.69,365.608,1064.78,364.338,1063.22,362.928 C1064.61,362.578,1067.03,363.078,1067.23,361.108 C1065.71,358.558,1063.45,355.918,1064.99,352.808 C1065.16,353.878,1065.35,354.948,1065.54,356.038 C1066.62,356.508,1067.72,356.948,1068.84,357.428 C1069.3,356.468,1069.78,355.508,1070.26,354.558 C1071.96,356.338,1073.87,358.178,1076.48,358.398 C1080.71,358.588,1083.23,362.358,1086.3,364.768 C1088.75,366.478,1088.38,369.798,1089.88,372.128 C1092.68,376.718,1097.54,379.818,1099.35,385.058 C1103.55,390.168,1106.15,396.288,1108.98,402.218 C1109.79,402.638,1110.61,403.058,1111.44,403.508 C1111.52,407.788,1115.1,410.758,1115.58,414.898 C1116.16,418.588,1119.3,421.288,1119.64,425.058 C1120.36,430.198,1121.89,435.168,1122.96,440.238 C1124.2,451.138,1124.87,462.108,1124.37,473.088 C1123.42,482.678,1123.04,492.348,1120.98,501.808 C1120.29,507.788,1117.77,513.298,1116.44,519.128 C1115.6,522.558,1113.42,525.588,1113.3,529.218 C1113.03,533.418,1110.01,536.668,1108.85,540.598 C1106.6,548.048,1102.6,554.798,1098.23,561.168 C1095.43,566.138,1093.56,571.608,1090.25,576.308 C1086.4,581.678,1084.34,588.098,1080.31,593.358 C1078.36,595.918,1077.17,598.918,1075.83,601.808 C1074.03,605.778,1070.32,608.388,1068.17,612.138 C1062.45,622.098,1054.94,630.868,1047.26,639.348 C1042.18,645.588,1035.82,650.588,1030.46,656.558 C1022.86,664.298,1015.19,671.968,1007.31,679.438 C1003.13,682.898,998.768,686.198,995.268,690.398 C989.898,696.748,982.768,701.208,976.798,706.938 C972.698,710.828,968.048,714.098,964.148,718.198 C961.888,720.868,957.968,721.598,956.388,724.888 C952.178,725.968,947.868,727.068,944.228,729.538 C941.408,731.448,940.098,735.258,936.498,736.018 C932.658,736.988,930.568,740.638,927.288,742.538 C924.518,744.138,922.458,746.638,919.848,748.408 C917.008,749.698,913.938,750.608,911.558,752.728 C907.668,756.118,902.578,757.558,898.488,760.628 C895.858,762.508,893.318,764.518,890.938,766.698 C890.368,766.468,889.828,766.208,889.308,765.928 C886.718,768.958,882.488,769.328,879.278,771.438 C870.888,776.438,861.758,779.938,853.148,784.488 C849.608,786.268,845.658,786.968,842.008,788.458 C838.668,790.078,836.078,793.158,832.258,793.718 C828.488,794.318,825.778,797.808,821.848,797.728 C811.548,797.818,802.178,803.168,791.888,803.498 C784.678,804.648,777.108,804.568,770.388,807.778 C764.878,810.728,758.558,807.868,752.788,809.518 C748.638,810.708,744.598,812.388,740.248,812.688 C734.338,813.198,729.438,817.018,723.688,818.108 C718.638,819.098,713.418,819.188,708.488,820.738 C705.228,821.748,702.228,823.498,698.898,824.308 C689.868,825.118,680.638,824.818,671.808,827.158 C665.808,828.268,659.668,827.298,653.648,828.128 C644.568,829.228,635.418,828.478,626.308,828.808 C619.158,830.038,611.888,829.148,604.708,829.958 C601.448,830.358,598.198,829.608,594.938,829.598 C591.248,829.548,587.638,830.628,583.948,830.548 C579.598,830.638,575.258,829.098,570.948,830.178 C564.848,831.668,558.568,831.098,552.358,831.248 C547.868,830.518,543.328,830.678,538.828,831.188 C531.848,830.908,524.888,831.788,517.908,831.488 C511.508,831.248,505.248,832.998,498.848,832.728 C489.158,832.228,479.468,834.898,469.818,833.218 C465.108,831.898,460.258,828.858,458.598,824.038 C457.788,816.098,460.498,808.368,462.078,800.688 C462.638,796.608,462.268,792.458,462.938,788.398 C463.728,783.018,462.988,777.558,463.758,772.188 C464.628,765.438,467.288,758.788,465.928,751.908 C466.198,744.648,466.338,737.308,467.878,730.168 C469.208,724.908,467.368,719.598,467.948,714.288 C465.788,707.338,466.268,700.048,466.368,692.868 C466.598,688.088,468.368,683.498,468.298,678.688 C467.938,672.778,471.368,667.398,475.058,663.098 C481.198,658.128,488.868,654.688,496.808,654.208 C501.108,653.638,505.328,652.448,509.708,652.528 C514.768,652.728,519.328,650.198,524.168,649.158 C528.198,648.338,531.938,646.528,535.968,645.718 C542.168,645.098,548.108,643.078,554.298,642.318 C562.088,640.278,570.118,639.188,578.178,639.508 C587.418,638.788,596.728,638.438,605.968,639.458 C614.318,639.948,622.728,638.888,631.048,640.158 C637.038,641.018,643.138,640.098,649.118,641.118 C652.608,641.668,656.128,641.138,659.648,641.198 C674.118,641.678,688.618,641.848,703.098,641.468 C708.038,640.638,713.288,641.218,717.948,639.098 C722.278,637.118,727.208,637.598,731.658,635.968 C736.178,634.408,740.948,633.928,745.668,633.348 C748.868,632.398,751.358,629.628,754.868,629.528 C762.418,628.658,768.398,623.428,775.608,621.488 C787.788,617.868,798.978,611.688,809.398,604.528 C816.388,599.728,824.328,596.438,830.898,591.048 C835.768,587.158,841.448,584.388,846.038,580.128 C851.678,575.448,856.188,569.638,861.258,564.378 C865.228,560.358,866.968,554.858,870.028,550.228 C874.578,542.578,882.118,536.488,884.208,527.518 C884.468,520.398,885.908,513.268,884.598,506.158 C884.548,500.648,881.668,495.688,881.458,490.208 C881.438,485.688,878.638,481.998,876.818,478.078 C874.948,474.298,873.928,470.058,871.188,466.768 C869.008,464.158,866.958,461.428,865.488,458.348 C862.678,452.588,858.458,447.588,856.288,441.518 C854.378,435.928,849.658,432.038,847.078,426.808 C845.168,422.398,839.948,421.488,836.838,418.198 C832.708,414.238,826.568,413.468,822.558,409.398 C815.748,402.558,806.638,398.798,799.098,392.898 C793.248,388.018,785.958,385.518,779.598,381.448 C772.938,378.198,766.908,373.718,759.878,371.238 C747.928,366.488,735.798,361.198,722.788,360.558 C716.128,360.728,709.568,359.158,702.908,359.448 C696.108,359.208,689.398,360.728,682.608,360.498 C677.408,360.338,672.638,362.698,667.698,363.918 C657.888,366.748,647.538,366.888,637.768,369.858 C633.748,371.078,629.638,371.928,625.528,372.768 C620.958,373.678,616.608,375.418,612.018,376.248 C608.708,376.838,605.378,377.368,602.168,378.368 C594.028,381.008,585.458,382.198,576.938,382.588 C573.148,382.958,569.808,385.208,565.978,385.368 C559.578,385.518,553.558,387.958,547.228,388.638 C539.218,389.918,531.028,390.148,523.198,392.418 C510.988,395.028,498.678,397.368,486.218,398.468 C479.128,399.228,472.138,400.768,465.138,402.138 C462.088,402.918,458.368,403.698,456.768,406.728 C451.768,417.818,452.978,430.228,450.898,441.938 C449.798,448.558,450.998,455.308,449.918,461.918 C448.518,470.478,450.248,479.198,448.858,487.748 C447.918,494.238,448.638,500.808,448.568,507.338 C448.378,515.398,450.598,523.528,448.488,531.498 C447.028,537.148,446.508,543.838,441.678,547.788 C438.428,549.938,434.398,550.318,430.668,551.038 C427.108,552.008,424.268,549.088,421.218,547.808 C415.398,544.538,407.778,545.098,402.928,540.058 C393.148,530.188,387.918,517.038,382.378,504.558 C376.228,493.318,371.678,481.318,366.198,469.758 C363.408,463.728,361.338,457.408,358.538,451.388 C356.438,447.008,356.598,441.958,354.388,437.628 C351.018,430.868,350.598,422.948,346.368,416.578 C343.868,412.848,342.088,408.398,338.248,405.808 C328.798,398.648,319.988,390.718,311.358,382.608 C304.308,374.418,297.588,365.708,288.968,359.068 C282.868,354.228,274.628,353.298,268.628,348.368 C264.218,343.838,260.128,337.408,261.718,330.828 C264.038,325.048,268.438,320.218,273.498,316.678 C278.048,313.558,281.678,309.298,286.338,306.328 C290.218,303.478,295.038,302.038,298.448,298.548 C299.828,297.278,300.998,295.698,302.698,294.828 C309.338,291.908,316.778,289.428,321.338,283.448 C324.758,279.478,328.858,276.148,333.288,273.368 C337.418,270.878,339.298,266.038,343.358,263.448 C346.948,261.068,350.678,258.858,353.788,255.838 z"/>
            </defs>
            <use xlink:href="#16" style="fill:url(#17);fill-opacity:1;fill-rule:evenodd;opacity:1;stroke:none;"/>
          </g>
        </defs>
        <use xlink:href="#15"/>
        <linearGradient x1="-76.6337" y1="814.499" x2="679.662" y2="814.499" gradientUnits="userSpaceOnUse" id="20">
          <stop offset="0.0297045" style="stop-color:#070000;stop-opacity:1;"/>
          <stop offset="0.0297046" style="stop-color:#000000;stop-opacity:1;"/>
          <stop offset="1" style="stop-color:#ff0000;stop-opacity:1;"/>
        </linearGradient>
        <defs>
          <title>Shape 4</title>
          <g id="18">
            <defs>
              <path id="19" d="M236.488,397.718 C242.858,396.918,250.178,397.328,255.368,401.538 C259.258,406.008,263.968,409.838,266.918,415.058 C269.688,419.248,273.028,423.008,275.818,427.188 C283.998,436.958,293.848,445.188,302.108,454.908 C306.758,459.338,309.968,464.978,314.328,469.678 C318.128,473.938,320.558,479.298,324.938,483.068 C334.058,491.338,340.988,501.628,349.878,510.108 C353.898,513.848,356.318,518.898,360.128,522.818 C364.958,527.828,367.998,534.168,372.408,539.518 C381.358,551.888,389.948,564.538,399.628,576.358 C402.848,581.038,407.918,584.458,413.478,585.628 C416.298,582.408,418.208,578.428,421.418,575.518 C422.548,574.508,423.738,573.028,425.448,573.388 C427.168,579.198,428.058,585.378,427.278,591.438 C425.968,598.158,426.408,605.028,425.468,611.798 C425.638,620.038,423.778,628.088,422.728,636.218 C421.688,647.578,418.258,658.658,418.348,670.128 C417.608,679.088,415.978,687.988,416.048,696.998 C416.148,702.708,415.318,708.378,414.578,714.018 C414.138,717.388,415.058,720.728,415.148,724.088 C414.728,728.098,413.368,731.978,413.468,736.058 C413.498,740.938,412.798,745.808,411.428,750.498 C410.668,753.308,409.438,756.128,409.928,759.118 C410.528,762.868,408.998,766.468,408.578,770.158 C408.148,776.788,407.678,783.418,407.078,790.028 C404.618,800.878,404.518,812.108,401.848,822.918 C399.608,831.448,400.358,840.358,401.278,849.008 C401.578,857.358,401.148,865.738,402.068,874.058 C400.948,891.658,402.448,909.358,400.638,926.928 C400.248,931.728,401.538,936.438,401.428,941.238 C401.348,946.768,401.808,952.368,400.748,957.848 C399.488,965.288,401.528,972.988,399.338,980.318 C398.178,984.638,398.438,989.148,397.798,993.558 C397.048,999.328,397.948,1005.2,396.868,1010.95 C395.938,1016.19,394.318,1021.38,394.508,1026.77 C394.378,1029.62,395.048,1032.88,393.168,1035.34 C391.798,1037.15,390.248,1039.46,387.768,1039.62 C385.058,1040.31,385.818,1036.33,384.978,1034.75 C382.398,1033.7,379.508,1033.86,376.928,1032.89 C375.268,1030.83,375.148,1027.97,374.358,1025.52 C371.448,1015.96,372.758,1005.88,372.548,996.058 C372.678,988.748,372.068,981.398,373.108,974.128 C373.848,966.628,372.888,959.018,374.548,951.598 C376.348,943.518,374.978,935.198,376.008,927.048 C376.798,921.038,375.058,915.078,375.388,909.068 C375.678,903.288,374.018,897.588,374.768,891.818 C375.588,885.238,373.238,878.808,373.458,872.248 C373.608,865.348,373.708,858.418,372.498,851.598 C370.858,842.478,371.818,833.208,371.478,824.008 C371.808,815.308,369.898,806.748,370.388,798.048 C370.798,787.898,369.838,777.668,371.388,767.588 C371.718,762.738,371.238,757.838,372.098,753.028 C372.858,743.608,372.088,734.108,372.908,724.698 C374.378,715.368,372.728,705.998,371.578,696.748 C371.268,688.808,369.228,681.028,369.458,673.068 C369.558,668.028,367.628,663.228,367.638,658.208 C367.588,652.938,367.888,647.628,366.938,642.418 C366.388,639.518,367.438,636.658,367.868,633.818 C369.128,627.868,367.488,621.528,369.888,615.788 C371.498,611.618,376.288,608.718,375.618,603.788 C375.868,600.418,374.408,597.268,372.188,594.818 C367.878,589.778,363.828,584.518,359.908,579.178 C349.788,562.428,336.708,547.778,324.398,532.658 C319.718,527.338,314.648,522.378,309.918,517.098 C302.918,508.478,293.828,501.628,287.958,492.078 C283.588,486.488,279.558,480.518,274.138,475.858 C265.178,467.588,256.528,458.948,247.238,451.048 C246.168,452.508,245.498,454.188,245.088,455.948 C241.178,457.288,242.968,461.638,242.888,464.708 C242.188,474.828,244.658,484.858,244.298,494.988 C244.038,501.718,245.498,508.348,245.478,515.078 C246.538,528.098,248.118,541.088,249.368,554.088 C248.898,560.258,251.588,566.058,251.268,572.208 C251.188,576.798,252.418,581.288,252.348,585.888 C252.308,590.158,253.498,594.328,253.388,598.608 C253.338,602.298,253.408,606.008,254.048,609.658 C255.048,617.238,253.678,624.968,255.208,632.508 C257.178,642.648,255.748,652.998,256.528,663.218 C258.018,675.108,256.928,687.138,257.718,699.068 C258.938,707.228,257.718,715.508,258.818,723.678 C260.038,731.918,258.508,740.348,260.408,748.518 C261.418,756.368,259.318,764.188,259.278,772.038 C259.508,783.038,259.598,794.058,259.268,805.058 C258.708,810.858,258.008,816.668,258.278,822.518 C258.688,829.418,255.498,835.868,255.388,842.718 C255.298,846.008,255.648,849.298,255.358,852.588 C255.018,855.408,253.978,858.098,253.648,860.938 C252.998,874.708,246.278,887.848,248.118,901.778 C247.058,906.138,245.128,910.318,245.138,914.898 C243.788,923.178,243.758,931.648,241.518,939.768 C241.318,946.538,240.198,953.228,239.578,959.958 C239.808,965.818,238.318,971.538,238.348,977.378 C238.238,984.508,235.708,991.388,235.548,998.518 C237.028,1008.2,234.238,1017.84,233.478,1027.46 C233.498,1031.94,233.088,1036.41,233.058,1040.9 C233.358,1045.99,233.828,1051.12,232.948,1056.19 C231.448,1065.24,233.138,1074.45,232.158,1083.54 C230.758,1091.04,232.358,1098.68,231.828,1106.24 C231.448,1109.16,231.108,1112.12,231.608,1115.06 C232.788,1121.83,232.478,1128.75,232.178,1135.59 C231.308,1141.26,232.518,1146.93,232.268,1152.62 C232.138,1156.87,233.108,1161.61,236.648,1164.35 C241.238,1167.61,247.138,1167.49,252.528,1167.65 C263.738,1168.72,275.068,1170.45,286.318,1168.74 C298.538,1168.83,310.758,1168.29,322.988,1168.54 C328.648,1168.84,334.178,1167.05,339.848,1167.53 C347.118,1168.15,354.258,1166.38,361.498,1166.18 C360.998,1162.26,361.998,1158.43,363.928,1155.03 C366.578,1150.37,364.198,1142.78,370.098,1140.23 C370.298,1139.37,370.548,1138.52,370.778,1137.71 C371.278,1137.62,372.278,1137.43,372.778,1137.34 C373.858,1138.09,374.878,1138.93,375.958,1139.71 C376.978,1138.99,377.838,1138.06,378.868,1137.37 C385.248,1141.01,390.328,1147.53,391.008,1155 C391.988,1161.63,391.208,1168.34,391.308,1175.02 C391.348,1177.89,391.098,1180.76,390.718,1183.61 C390.068,1191.39,391.068,1199.27,389.808,1207.02 C389.118,1211.77,388.848,1216.58,388.148,1221.34 C386.488,1222.89,384.068,1222.58,381.978,1222.7 C376.968,1222.67,371.948,1222.77,366.938,1222.68 C362.898,1222.89,360.738,1218.49,356.908,1217.89 C349.558,1216.77,342.278,1219.25,334.898,1218.71 C327.228,1219.28,320.578,1214.14,312.948,1214.53 C303.688,1214.64,294.438,1214.55,285.178,1214.55 C280.418,1214.61,275.708,1213.12,270.948,1213.92 C265.058,1215.14,259.208,1213.16,253.288,1213.47 C248.318,1213.65,242.938,1210.96,238.258,1213.45 C232.598,1216.89,234.248,1225.3,228.728,1228.8 C223.668,1232.74,216.948,1231.31,211.028,1231.55 C208.698,1231.8,207.138,1229.75,206.038,1228.02 C203.608,1224.14,205.708,1218.98,202.818,1215.32 C198.918,1209.67,191.188,1209.84,185.998,1205.95 C179.128,1202.15,173.688,1193.95,176.008,1185.94 C177.038,1179.78,182.028,1175.4,186.788,1171.88 C189.318,1169.92,192.598,1169.64,195.518,1168.61 C200.698,1166.37,204.398,1161.11,204.518,1155.43 C204.678,1147.25,203.878,1139.03,204.948,1130.89 C205.438,1127.04,204.018,1123.22,204.718,1119.38 C205.248,1116.24,205.688,1113.06,205.298,1109.89 C204.578,1102.27,204.888,1094.62,205.278,1087.01 C203.998,1081.01,205.738,1075.05,205.508,1069.03 C205.658,1062.69,205.048,1056.31,206.078,1050.02 C206.758,1045.49,206.428,1040.9,205.718,1036.41 C204.738,1030.26,206.828,1024.23,206.688,1018.08 C207.548,1012.16,207.688,1006.19,207.188,1000.23 C207.638,994.968,207.318,989.678,207.848,984.448 C209.498,977.798,209.758,970.958,209.628,964.148 C209.468,960.598,211.588,957.438,211.498,953.908 C211.528,950.428,211.308,946.948,211.458,943.478 C211.548,939.288,212.958,935.278,213.388,931.128 C214.048,924.398,215.788,917.818,216.258,911.058 C216.468,905.078,217.438,899.158,217.658,893.188 C218.688,887.438,221.198,881.978,221.278,876.058 C221.268,869.158,223.978,862.648,224.348,855.798 C224.578,846.908,225.608,838.048,227.468,829.358 C229.068,822.338,227.808,815.098,229.078,808.048 C229.828,803.348,229.198,798.578,229.788,793.888 C230.258,790.198,232.558,786.628,231.278,782.868 C230.188,779.578,231.458,776.228,231.448,772.898 C231.528,764.958,231.088,756.968,232.148,749.078 C232.418,746.788,232.198,744.488,231.838,742.228 C230.938,736.658,231.568,731.008,231.448,725.408 C231.408,716.788,230.548,708.208,230.778,699.598 C230.648,695.438,228.858,691.438,229.448,687.238 C230.148,681.608,229.598,675.958,229.358,670.318 C228.168,660.108,228.018,649.818,226.608,639.618 C226.448,632.308,226.258,624.998,224.988,617.778 C224.008,613.468,226.098,609.078,224.658,604.818 C223.538,600.908,223.678,596.828,223.268,592.828 C220.598,580.158,220.998,567.108,218.768,554.368 C217.098,545.998,218.048,537.378,216.038,529.068 C215.148,521.558,215.058,513.928,213.368,506.518 C211.338,497.458,212.008,488.068,210.148,478.988 C209.138,474.048,209.548,468.988,208.958,464.018 C208.298,458.288,207.968,452.458,208.878,446.738 C209.778,442.258,207.238,437.668,209.128,433.268 C210.498,427.548,216.658,425.338,219.568,420.608 C223.268,416.108,224.248,409.798,228.898,406.038 C231.738,403.548,233.768,400.308,236.488,397.718 z"/>
            </defs>
            <use xlink:href="#19" style="fill:url(#20);fill-opacity:1;fill-rule:evenodd;opacity:1;stroke:none;"/>
          </g>
        </defs>
        <use xlink:href="#18"/>
        <linearGradient x1="483.626" y1="469.477" x2="689.493" y2="469.477" gradientUnits="userSpaceOnUse" id="23">
          <stop offset="0.0297045" style="stop-color:#070000;stop-opacity:1;"/>
          <stop offset="0.0297046" style="stop-color:#000000;stop-opacity:1;"/>
          <stop offset="1" style="stop-color:#ff0000;stop-opacity:1;"/>
        </linearGradient>
        <defs>
          <title>Shape 5</title>
          <g id="21">
            <defs>
              <path id="22" d="M612.438,448.528 C615.648,447.598,618.988,450.278,619.878,453.278 C621.698,462.898,621.158,473.098,617.058,482.098 C615.308,485.218,613.098,488.648,609.428,489.638 C604.268,491.098,598.408,491.068,593.598,488.518 C589.828,486.298,587.218,482.158,582.708,481.248 C577.648,480.178,572.368,479.228,567.218,480.318 C561.948,481.538,557.218,478.398,552.248,477.298 C552.318,476.038,552.298,474.778,552.358,473.528 C555.498,470.858,559.388,469.358,563.388,468.548 C563.548,468.028,563.848,466.978,563.998,466.458 C565.408,467.688,567.238,468.158,568.828,469.088 C569.638,468.138,570.408,467.148,571.198,466.178 C572.038,466.858,572.668,467.738,573.488,468.468 C576.958,466.988,581.038,465.928,582.968,462.358 C584.048,462.788,585.188,463.108,586.278,463.568 C589.078,459.448,594.788,460.288,598.428,457.378 C602.768,453.968,607.058,450.178,612.438,448.528 z"/>
            </defs>
            <use xlink:href="#22" style="fill:url(#23);fill-opacity:1;fill-rule:evenodd;opacity:1;stroke:none;"/>
          </g>
        </defs>
        <use xlink:href="#21"/>
        <linearGradient x1="344.383" y1="1079.72" x2="418.761" y2="1079.72" gradientUnits="userSpaceOnUse" id="26">
          <stop offset="0.0297045" style="stop-color:#070000;stop-opacity:1;"/>
          <stop offset="0.0297046" style="stop-color:#000000;stop-opacity:1;"/>
          <stop offset="1" style="stop-color:#ff0000;stop-opacity:1;"/>
        </linearGradient>
        <defs>
          <title>Shape 6</title>
          <g id="24">
            <defs>
              <path id="25" d="M387.878,1054.02 C389.058,1052.78,390.138,1051.45,391.358,1050.26 C393.938,1054.95,391.468,1060.33,392.478,1065.33 C393.428,1070.19,393.558,1075.15,393.968,1080.09 C393.968,1083.38,392.868,1086.56,392.498,1089.83 C391.878,1095.52,388.818,1100.76,389.268,1106.6 C388.908,1106.58,388.188,1106.53,387.828,1106.51 C387.548,1105.62,387.258,1104.75,386.948,1103.9 C384.848,1105.27,383.078,1107.09,381.678,1109.18 C378.608,1105.77,375.118,1102.58,370.698,1101.09 C368.268,1090.93,369.108,1080.26,370.708,1070.03 C370.878,1067.6,372.938,1066.12,374.338,1064.38 C376.138,1062.36,375.678,1059.26,377.248,1057.17 C380.248,1054.91,384.118,1053.69,387.878,1054.02 z"/>
            </defs>
            <use xlink:href="#25" style="fill:url(#26);fill-opacity:1;fill-rule:evenodd;opacity:1;stroke:none;"/>
          </g>
        </defs>
        <use xlink:href="#24"/>
        <defs>
          <title>Group</title>
          <g id="27">
            <defs>
              <path id="28" d="M456.118,71.2882 C459.588,69.0782,463.968,67.4082,468.018,69.0482 C470.868,70.4582,473.648,72.7082,474.558,75.8782 C476.238,81.5482,477.348,87.4182,477.428,93.3382 C478.538,105.388,479.018,117.528,481.178,129.468 C481.388,137.798,483.428,145.898,484.448,154.138 C485.068,157.608,485.948,162.348,490.058,163.188 C500.198,164.508,510.308,162.828,520.368,161.728 C527.778,161.988,534.888,159.528,542.258,159.428 C547.698,159.138,553.018,157.938,558.348,156.908 C562.928,156.528,567.538,156.348,572.108,155.718 C579.208,155.588,586.078,153.248,593.218,153.518 C599.708,152.658,606.298,153.048,612.748,151.878 C619.028,151.118,625.348,152.138,631.648,151.808 C637.918,151.368,644.258,152.208,650.468,150.938 C656.838,149.738,663.108,152.168,669.488,151.758 C678.648,151.268,687.818,151.698,696.978,151.398 C705.938,150.358,714.628,147.578,723.608,146.638 C732.558,146.288,741.508,146.528,750.458,146.598 C757.408,146.468,764.038,148.968,770.938,149.468 C779.988,150.088,788.059,154.698,796.858,156.478 C802.418,157.688,807.378,160.628,812.778,162.348 C818.678,164.258,824.118,167.368,830.118,169.028 C836.478,170.828,841.998,174.708,848.348,176.538 C853.728,178.058,858.858,180.278,864.128,182.148 C869.278,183.898,872.908,188.608,878.319,189.758 C882.558,190.898,887.418,190.208,891.148,192.898 C894.358,195.028,897.528,197.258,901.088,198.808 C908.568,201.938,915.798,205.808,922.268,210.708 C924.848,212.578,928.218,213.148,930.458,215.538 C931.838,216.918,933.488,217.978,935.268,218.798 C939.658,220.788,943.348,224.008,947.838,225.808 C949.378,229.248,952.768,231.118,955.488,233.508 C957.948,235.668,960.559,237.698,962.788,240.118 C965.678,243.478,966.138,248.058,967.659,252.078 C967.928,253.588,969.738,253.528,970.878,254.058 C969.398,255.208,967.638,256.168,966.748,257.898 C966.068,259.688,966.268,261.648,966.308,263.528 C964.259,264.358,962.048,264.608,959.868,264.678 C959.118,263.218,958.518,261.628,957.328,260.468 C954.898,258.888,951.708,260.058,949.228,258.608 C947.328,257.558,945.608,256.228,943.678,255.258 C940.358,253.568,936.558,253.228,933.248,251.558 C930.548,250.098,929.189,246.998,926.548,245.528 C923.648,244.578,920.538,243.928,918.328,241.648 C913.798,237.418,907.448,236.558,902.028,233.958 C896.268,231.178,889.898,229.858,884.338,226.628 C879.738,224.038,874.708,222.268,869.608,220.968 C864.728,220.058,858.668,221.158,855.248,216.728 C852.718,213.208,848.078,214.038,844.468,212.658 C835.348,208.818,825.718,206.358,816.608,202.468 C811.418,200.018,805.648,199.218,800.458,196.808 C795.858,194.798,790.808,194.108,786.318,191.848 C779.978,188.538,772.738,188.078,765.908,186.358 C753.398,184.608,740.718,184.198,728.088,184.718 C718.468,185.988,708.828,187.908,700.088,192.258 C694.148,195.328,687.338,195.778,681.298,198.528 C677.128,200.568,672.348,199.388,667.898,199.578 C660.408,199.708,653.508,195.878,646.078,195.798 C640.358,196.738,634.568,196.648,628.798,196.598 C619.818,197.198,613.478,189.108,604.858,187.988 C599.858,186.508,594.908,189.078,589.948,187.838 C582.618,186.718,574.788,189.348,567.888,185.968 C564.528,184.878,560.978,184.278,557.908,182.448 C556.848,182.828,555.838,183.318,554.788,183.708 C554.218,182.708,553.718,181.678,553.118,180.708 C548.448,181.068,544.068,178.788,539.418,179.188 C537.498,179.288,535.568,179.338,533.648,179.368 C533.568,179.718,533.398,180.418,533.308,180.768 C531.788,180.018,530.308,178.508,528.478,178.988 C524.238,179.908,519.948,180.868,515.578,180.408 C515.508,181.138,515.458,181.868,515.418,182.608 C513.868,182.218,512.258,181.258,510.648,181.898 C507.218,183.198,504.238,185.388,500.978,187.018 C499.518,187.948,497.658,188.548,496.688,190.068 C496.028,192.068,495.818,194.178,495.658,196.278 C498.978,196.518,501.718,198.488,504.788,199.528 C508.638,199.638,512.478,197.668,516.288,199.098 C521.368,200.858,526.718,200.268,531.938,199.668 C532.238,200.588,532.528,201.518,532.838,202.438 C527.418,201.218,524.008,206.418,518.998,207.158 C513.568,208.558,507.928,208.758,502.458,209.938 C499.528,210.458,496.588,211.798,493.588,210.928 C491.508,215.038,486.568,213.148,482.928,213.758 C477.258,214.528,471.848,216.538,466.198,217.428 C458.328,218.818,450.238,221.968,442.218,219.758 C440.898,223.838,436.148,223.618,432.658,224.288 C430.988,224.648,429.318,224.188,427.768,223.598 C426.788,225.528,425.778,227.468,424.448,229.188 C424.368,227.778,424.378,226.368,424.328,224.968 C422.048,224.598,419.738,224.628,417.488,225.128 C414.878,221.238,410.958,218.558,407.698,215.278 C404.338,211.868,399.308,210.448,396.588,206.378 C392.538,200.378,391.328,193.098,388.508,186.548 C387.148,182.968,382.648,182.258,380.848,178.978 C379.208,175.958,376.478,172.678,377.858,169.048 C379.288,164.318,380.958,159.318,384.688,155.868 C386.648,154.068,388.318,151.998,389.818,149.808 C391.388,147.448,393.978,146.068,395.808,143.958 C397.228,141.948,397.778,139.418,399.458,137.588 C405.028,133.098,408.518,126.498,410.788,119.818 C411.738,117.848,413.568,116.428,414.368,114.368 C415.908,110.628,416.658,106.508,419.088,103.178 C422.168,98.9982,426.088,95.5182,429.358,91.4882 C432.848,86.9582,437.778,83.9182,441.748,79.8682 C445.748,75.8082,451.388,74.2582,456.118,71.2882 M438.108,144.168 C434.828,148.498,431.968,153.378,431.118,158.838 C433.488,159.858,435.918,159.378,437.218,157.008 C438.538,157.708,439.898,158.338,441.228,159.058 C441.308,157.958,441.408,156.868,441.508,155.778 C443.028,155.438,445.048,155.678,445.968,154.118 C448.738,150.078,448.718,144.978,449.468,140.308 C445.418,140.388,440.868,140.768,438.108,144.168 z M353.788,255.838 C356.658,252.958,360.738,251.538,364.748,251.468 C366.228,251.468,368.268,252.038,368.398,253.798 C368.868,256.668,368.648,259.748,367.248,262.338 C365.458,266.088,362.158,269.188,361.608,273.468 C360.538,281.138,355.448,287.288,351.478,293.658 C348.508,298.538,344.208,302.388,340.848,306.988 C339.718,308.238,338.728,310.018,336.938,310.348 C334.428,311.638,332.798,314.008,330.918,316.018 C326.378,321.338,321.508,326.798,319.648,333.708 C318.718,337.918,321.378,341.908,324.318,344.658 C332.458,352.138,339.698,360.698,348.858,367.008 C355.378,371.368,361.478,376.488,366.248,382.748 C369.128,386.608,372.988,390.058,374.068,394.958 C375.258,400.118,377.698,404.858,379.268,409.898 C380.098,413.158,383.478,415.258,383.538,418.758 C384.408,427.648,391.328,434.278,393.308,442.798 C395.728,450.978,400.588,458.168,403.188,466.278 C403.738,466.078,404.288,465.898,404.858,465.738 C405.458,467.518,406.068,469.338,407.198,470.878 C408.518,472.148,410.628,471.838,412.258,471.388 C415.228,464.688,414.068,457.148,414.648,450.048 C416.418,438.858,413.868,427.288,417.088,416.278 C419.088,409.848,419.588,402.948,422.698,396.898 C425.198,391.598,426.868,385.938,429.598,380.728 C431.228,377.878,430.748,373.828,433.798,371.898 C437.328,369.308,441.108,367.038,445.058,365.148 C449.578,363.018,454.688,363.738,459.518,363.538 C464.628,363.488,469.608,362.218,474.548,361.018 C482.348,359.778,490.328,359.838,498.058,358.118 C505.998,356.478,514.148,356.058,522.008,353.988 C529.398,351.988,537.178,351.868,544.478,349.478 C548.198,348.298,552.058,347.598,555.958,347.588 C561.368,347.668,566.258,344.768,571.638,344.618 C579.138,344.448,586.338,342.028,593.788,341.438 C597.758,341.158,601.578,339.978,605.188,338.318 C608.368,336.808,611.988,338.038,615.308,337.178 C618.198,336.238,620.868,334.728,623.768,333.768 C627.928,332.268,632.608,332.058,636.318,329.418 C639.558,327.238,643.158,325.548,647.068,325.028 C653.798,324.098,660.568,322.958,667.388,323.338 C673.818,323.758,680.138,322.048,686.568,322.488 C692.358,322.868,698.089,321.068,703.858,322.148 C709.548,323.038,715.228,320.758,720.898,322.008 C727.088,323.198,733.478,323.368,739.468,325.468 C745.928,327.638,753.008,327.568,759.148,330.738 C765.758,334.088,772.848,336.278,779.658,339.138 C787.238,340.688,793.798,345.428,799.048,350.948 C801.828,353.598,805.258,355.388,808.288,357.708 C814.369,362.438,821.418,365.708,827.448,370.518 C837.888,378.648,847.978,387.298,857.248,396.758 C861.408,402.318,866.488,407.348,869.288,413.808 C871.148,417.718,874.448,420.698,876.418,424.558 C879.198,430.208,884.038,434.438,887.018,439.968 C889.638,444.828,894.518,448.008,896.778,453.108 C898.358,456.508,900.028,459.868,901.698,463.238 C904.118,468.068,904.918,473.578,907.818,478.198 C910.608,482.638,912.348,487.758,912.448,493.038 C912.538,498.828,913.968,504.478,914.888,510.178 C916.388,521.898,915.948,534.188,911.068,545.138 C908.068,550.668,905.078,556.248,901.158,561.198 C893.158,572.808,886.528,585.518,876.438,595.538 C872.108,599.548,868.828,604.638,863.888,607.968 C858.918,611.288,854.788,615.748,849.478,618.538 C842.958,621.878,837.069,626.258,830.608,629.708 C825.518,632.698,819.998,634.888,815.048,638.128 C808.798,642.398,801.378,644.368,794.408,647.118 C794.788,647.838,795.198,648.548,795.618,649.268 C790.978,649.838,786.098,649.568,781.788,651.648 C777.298,653.978,772.108,653.288,767.318,654.378 C758.048,656.538,748.358,654.678,739.158,657.308 C733.228,659.338,726.788,657.778,720.888,659.968 C709.838,663.408,698.108,661.848,686.898,664.158 C675.798,665.078,665.048,668.638,653.848,668.698 C647.088,668.558,640.728,671.568,633.968,671.458 C626.418,671.408,618.818,672.078,611.328,670.758 C602.248,670.038,593.108,670.738,584.008,670.658 C577.948,671.868,571.608,670.978,565.688,672.938 C559.848,674.758,553.608,674.718,547.828,676.828 C539.718,678.618,532.378,683.288,523.938,683.598 C518.908,683.858,514.138,685.638,509.218,686.548 C506.028,687.218,502.468,687.718,500.198,690.308 C496.928,694.008,493.438,698.768,495.178,703.978 C495.848,719.138,495.248,734.338,495.488,749.518 C495.258,756.108,496.188,762.848,494.278,769.278 C493.038,773.108,494.598,777.098,493.778,780.978 C493.268,786.538,492.858,792.268,493.738,797.798 C496.598,801.958,502.448,801.618,506.938,801.608 C514.248,801.078,521.608,801.818,528.878,800.738 C540.688,800.278,552.528,800.988,564.338,800.318 C572.408,799.078,580.598,799.798,588.718,799.278 C596.458,798.168,604.288,798.568,612.088,798.378 C618.398,798.658,624.628,797.308,630.948,797.588 C638.278,797.918,645.758,796.798,652.968,798.628 C656.969,799.778,661.048,797.928,665.108,798.638 C672.238,799.958,679.568,799.958,686.738,798.918 C690.458,798.348,694.158,799.918,697.878,799.148 C702.198,798.418,706.538,797.708,710.938,797.908 C716.228,798.128,721.218,796.088,726.438,795.618 C730.358,795.238,734.088,793.618,738.068,793.598 C742.248,793.558,746.518,793.938,750.618,792.818 C755.238,791.478,760.618,791.988,764.378,788.498 C766.358,788.868,768.439,789.338,770.408,788.618 C777.408,786.398,784.768,788.208,791.908,788.338 C795.528,787.588,799.718,787.258,802.718,784.968 C806.268,778.718,813.148,775.878,818.228,771.128 C819.828,769.618,821.888,770.918,823.208,772.098 C823.218,770.608,823.258,769.118,823.358,767.658 C828.428,764.908,834.088,763.328,838.878,760.058 C848.878,753.498,859.018,747.038,870.028,742.298 C874.238,740.618,878.708,739.318,882.288,736.408 C887.739,732.008,894.358,729.438,899.878,725.128 C907.758,719.218,916.858,714.988,923.998,708.098 C927.319,704.988,931.428,702.938,935.008,700.178 C940.508,696.008,945.868,691.668,951.018,687.088 C953.858,684.358,958.239,684.008,960.798,680.898 C967.148,673.848,975.038,668.468,981.928,661.978 C1001.85,643.578,1020.62,623.928,1037.91,603.038 C1043.1,596.418,1048.09,589.528,1051.54,581.818 C1059.25,565.178,1068.93,549.568,1077.4,533.338 C1079.5,530.038,1082.05,526.988,1083.34,523.248 C1085.12,518.228,1087.91,513.468,1088.41,508.078 C1088.6,505.068,1089.89,502.338,1091.09,499.638 C1095.59,487.688,1097.22,474.908,1097.59,462.208 C1098.91,453.108,1096.98,443.978,1095.18,435.088 C1094.33,431.008,1093.69,426.868,1092.25,422.948 C1090.96,419.408,1088.07,416.598,1087.48,412.788 C1086.88,409.728,1084.16,407.548,1083.9,404.388 C1083.37,401.888,1083.72,399.078,1082.15,396.918 C1079.85,393.518,1077.18,390.278,1075.85,386.338 C1074.65,382.728,1073.11,379.228,1070.75,376.218 C1068.77,373.768,1068.47,370.558,1067.41,367.698 C1066.69,365.608,1064.78,364.338,1063.22,362.928 C1064.61,362.578,1067.03,363.078,1067.23,361.108 C1065.71,358.558,1063.45,355.918,1064.99,352.808 C1065.16,353.878,1065.35,354.948,1065.54,356.038 C1066.62,356.508,1067.72,356.948,1068.84,357.428 C1069.3,356.468,1069.78,355.508,1070.26,354.558 C1071.96,356.338,1073.87,358.178,1076.48,358.398 C1080.71,358.588,1083.23,362.358,1086.3,364.768 C1088.75,366.478,1088.38,369.798,1089.88,372.128 C1092.68,376.718,1097.54,379.818,1099.35,385.058 C1103.55,390.168,1106.15,396.288,1108.98,402.218 C1109.79,402.638,1110.61,403.058,1111.44,403.508 C1111.52,407.788,1115.1,410.758,1115.58,414.898 C1116.16,418.588,1119.3,421.288,1119.64,425.058 C1120.36,430.198,1121.89,435.168,1122.96,440.238 C1124.2,451.138,1124.87,462.108,1124.37,473.088 C1123.42,482.678,1123.04,492.348,1120.98,501.808 C1120.29,507.788,1117.77,513.298,1116.44,519.128 C1115.6,522.558,1113.42,525.588,1113.3,529.218 C1113.03,533.418,1110.01,536.668,1108.85,540.598 C1106.6,548.048,1102.6,554.798,1098.23,561.168 C1095.43,566.138,1093.56,571.608,1090.25,576.308 C1086.4,581.678,1084.34,588.098,1080.31,593.358 C1078.36,595.918,1077.17,598.918,1075.83,601.808 C1074.03,605.778,1070.32,608.388,1068.17,612.138 C1062.45,622.098,1054.94,630.868,1047.26,639.348 C1042.18,645.588,1035.82,650.588,1030.46,656.558 C1022.86,664.298,1015.19,671.968,1007.31,679.438 C1003.13,682.898,998.768,686.198,995.268,690.398 C989.898,696.748,982.768,701.208,976.798,706.938 C972.698,710.828,968.048,714.098,964.148,718.198 C961.888,720.868,957.968,721.598,956.388,724.888 C952.178,725.968,947.869,727.068,944.228,729.538 C941.409,731.448,940.098,735.258,936.498,736.018 C932.658,736.988,930.568,740.638,927.288,742.538 C924.518,744.138,922.458,746.638,919.848,748.408 C917.008,749.698,913.938,750.608,911.558,752.728 C907.668,756.118,902.578,757.558,898.488,760.628 C895.858,762.508,893.319,764.518,890.938,766.698 C890.369,766.468,889.828,766.208,889.308,765.928 C886.718,768.958,882.489,769.328,879.278,771.438 C870.888,776.438,861.758,779.938,853.148,784.488 C849.608,786.268,845.658,786.968,842.009,788.458 C838.668,790.078,836.078,793.158,832.259,793.718 C828.488,794.318,825.778,797.808,821.848,797.728 C811.549,797.818,802.178,803.168,791.888,803.498 C784.678,804.648,777.108,804.568,770.388,807.778 C764.879,810.728,758.558,807.868,752.788,809.518 C748.639,810.708,744.598,812.388,740.248,812.688 C734.338,813.198,729.438,817.018,723.688,818.108 C718.638,819.098,713.418,819.188,708.488,820.738 C705.228,821.748,702.228,823.498,698.898,824.308 C689.868,825.118,680.638,824.818,671.808,827.158 C665.809,828.268,659.668,827.298,653.648,828.128 C644.568,829.228,635.418,828.478,626.308,828.808 C619.158,830.038,611.888,829.148,604.708,829.958 C601.448,830.358,598.198,829.608,594.938,829.598 C591.248,829.548,587.638,830.628,583.948,830.548 C579.598,830.638,575.258,829.098,570.948,830.178 C564.848,831.668,558.568,831.098,552.358,831.248 C547.868,830.518,543.328,830.678,538.828,831.188 C531.848,830.908,524.888,831.788,517.908,831.488 C511.509,831.248,505.248,832.998,498.848,832.728 C489.159,832.228,479.468,834.898,469.818,833.218 C465.108,831.898,460.258,828.858,458.598,824.038 C457.788,816.098,460.498,808.368,462.078,800.688 C462.638,796.608,462.268,792.458,462.938,788.398 C463.728,783.018,462.988,777.558,463.758,772.188 C464.628,765.438,467.288,758.788,465.928,751.908 C466.198,744.648,466.338,737.308,467.878,730.168 C469.208,724.908,467.368,719.598,467.948,714.288 C465.788,707.338,466.268,700.048,466.368,692.868 C466.598,688.088,468.368,683.498,468.298,678.688 C467.938,672.778,471.368,667.398,475.058,663.098 C481.198,658.128,488.868,654.688,496.809,654.208 C501.108,653.638,505.328,652.448,509.708,652.528 C514.768,652.728,519.328,650.198,524.168,649.158 C528.198,648.338,531.938,646.528,535.968,645.718 C542.168,645.098,548.108,643.078,554.298,642.318 C562.088,640.278,570.118,639.188,578.178,639.508 C587.418,638.788,596.728,638.438,605.968,639.458 C614.318,639.948,622.728,638.888,631.048,640.158 C637.038,641.018,643.138,640.098,649.118,641.118 C652.608,641.668,656.128,641.138,659.648,641.198 C674.118,641.678,688.618,641.848,703.098,641.468 C708.038,640.638,713.288,641.218,717.948,639.098 C722.278,637.118,727.208,637.598,731.658,635.968 C736.178,634.408,740.949,633.928,745.668,633.348 C748.868,632.398,751.358,629.628,754.868,629.528 C762.419,628.658,768.398,623.428,775.608,621.488 C787.788,617.868,798.978,611.688,809.398,604.528 C816.388,599.728,824.328,596.438,830.898,591.048 C835.768,587.158,841.448,584.388,846.038,580.128 C851.678,575.448,856.188,569.638,861.258,564.378 C865.228,560.358,866.968,554.858,870.028,550.228 C874.578,542.578,882.118,536.488,884.208,527.518 C884.468,520.398,885.908,513.268,884.598,506.158 C884.548,500.648,881.668,495.688,881.458,490.208 C881.438,485.688,878.638,481.998,876.818,478.078 C874.948,474.298,873.928,470.058,871.188,466.768 C869.008,464.158,866.958,461.428,865.489,458.348 C862.678,452.588,858.458,447.588,856.288,441.518 C854.378,435.928,849.658,432.038,847.078,426.808 C845.168,422.398,839.948,421.488,836.838,418.198 C832.708,414.238,826.568,413.468,822.558,409.398 C815.748,402.558,806.638,398.798,799.098,392.898 C793.248,388.018,785.958,385.518,779.598,381.448 C772.938,378.198,766.908,373.718,759.878,371.238 C747.928,366.488,735.799,361.198,722.788,360.558 C716.128,360.728,709.568,359.158,702.908,359.448 C696.108,359.208,689.398,360.728,682.608,360.498 C677.408,360.338,672.638,362.698,667.698,363.918 C657.888,366.748,647.538,366.888,637.768,369.858 C633.748,371.078,629.638,371.928,625.528,372.768 C620.958,373.678,616.608,375.418,612.018,376.248 C608.708,376.838,605.378,377.368,602.168,378.368 C594.028,381.008,585.458,382.198,576.938,382.588 C573.148,382.958,569.808,385.208,565.978,385.368 C559.578,385.518,553.558,387.958,547.228,388.638 C539.218,389.918,531.028,390.148,523.198,392.418 C510.988,395.028,498.678,397.368,486.218,398.468 C479.128,399.228,472.138,400.768,465.138,402.138 C462.088,402.918,458.368,403.698,456.768,406.728 C451.768,417.818,452.978,430.228,450.898,441.938 C449.798,448.558,450.998,455.308,449.918,461.918 C448.518,470.478,450.248,479.198,448.858,487.748 C447.918,494.238,448.638,500.808,448.568,507.338 C448.378,515.398,450.598,523.528,448.488,531.498 C447.028,537.148,446.508,543.838,441.678,547.788 C438.428,549.938,434.398,550.318,430.668,551.038 C427.108,552.008,424.268,549.088,421.218,547.808 C415.398,544.538,407.778,545.098,402.928,540.058 C393.148,530.188,387.918,517.038,382.378,504.558 C376.228,493.318,371.678,481.318,366.198,469.758 C363.408,463.728,361.338,457.408,358.538,451.388 C356.438,447.008,356.598,441.958,354.388,437.628 C351.018,430.868,350.598,422.948,346.368,416.578 C343.868,412.848,342.088,408.398,338.248,405.808 C328.798,398.648,319.988,390.718,311.358,382.608 C304.308,374.418,297.588,365.708,288.968,359.068 C282.868,354.228,274.628,353.298,268.628,348.368 C264.218,343.838,260.128,337.408,261.718,330.828 C264.038,325.048,268.438,320.218,273.498,316.678 C278.048,313.558,281.678,309.298,286.338,306.328 C290.218,303.478,295.038,302.038,298.448,298.548 C299.828,297.278,300.998,295.698,302.698,294.828 C309.338,291.908,316.778,289.428,321.338,283.448 C324.758,279.478,328.858,276.148,333.288,273.368 C337.418,270.878,339.298,266.038,343.358,263.448 C346.948,261.068,350.678,258.858,353.788,255.838 z M236.488,397.718 C242.858,396.918,250.178,397.328,255.368,401.538 C259.258,406.008,263.968,409.838,266.918,415.058 C269.688,419.248,273.028,423.008,275.818,427.188 C283.998,436.958,293.848,445.188,302.108,454.908 C306.758,459.338,309.968,464.978,314.328,469.678 C318.128,473.938,320.558,479.298,324.938,483.068 C334.058,491.338,340.988,501.628,349.878,510.108 C353.898,513.848,356.318,518.898,360.128,522.818 C364.958,527.828,367.998,534.168,372.408,539.518 C381.358,551.888,389.948,564.538,399.628,576.358 C402.848,581.038,407.918,584.458,413.478,585.628 C416.298,582.408,418.208,578.428,421.418,575.518 C422.548,574.508,423.738,573.028,425.448,573.388 C427.168,579.198,428.058,585.378,427.278,591.438 C425.968,598.158,426.408,605.028,425.468,611.798 C425.638,620.038,423.778,628.088,422.728,636.218 C421.688,647.578,418.258,658.658,418.348,670.128 C417.608,679.088,415.978,687.988,416.048,696.998 C416.148,702.708,415.318,708.378,414.578,714.018 C414.138,717.388,415.058,720.728,415.148,724.088 C414.728,728.098,413.368,731.978,413.468,736.058 C413.498,740.938,412.798,745.808,411.428,750.498 C410.668,753.308,409.438,756.128,409.928,759.118 C410.528,762.868,408.998,766.468,408.578,770.158 C408.148,776.788,407.678,783.418,407.078,790.028 C404.618,800.878,404.518,812.108,401.848,822.918 C399.608,831.448,400.358,840.358,401.278,849.008 C401.578,857.358,401.148,865.738,402.068,874.058 C400.948,891.658,402.448,909.358,400.638,926.928 C400.248,931.728,401.538,936.438,401.428,941.238 C401.348,946.768,401.808,952.368,400.748,957.848 C399.488,965.288,401.528,972.988,399.338,980.318 C398.178,984.638,398.438,989.148,397.798,993.558 C397.048,999.328,397.948,1005.2,396.868,1010.95 C395.938,1016.19,394.318,1021.38,394.508,1026.77 C394.378,1029.62,395.048,1032.88,393.168,1035.34 C391.798,1037.15,390.248,1039.46,387.768,1039.62 C385.058,1040.31,385.818,1036.33,384.978,1034.75 C382.398,1033.7,379.508,1033.86,376.928,1032.89 C375.268,1030.83,375.148,1027.97,374.358,1025.52 C371.448,1015.96,372.758,1005.88,372.548,996.058 C372.678,988.748,372.068,981.398,373.108,974.128 C373.848,966.628,372.888,959.018,374.548,951.598 C376.348,943.518,374.978,935.198,376.008,927.048 C376.798,921.038,375.058,915.078,375.388,909.068 C375.678,903.288,374.018,897.588,374.768,891.818 C375.588,885.238,373.238,878.808,373.458,872.248 C373.608,865.348,373.708,858.418,372.498,851.598 C370.858,842.478,371.818,833.208,371.478,824.008 C371.808,815.308,369.898,806.748,370.388,798.048 C370.798,787.898,369.838,777.668,371.388,767.588 C371.718,762.738,371.238,757.838,372.098,753.028 C372.858,743.608,372.088,734.108,372.908,724.698 C374.378,715.368,372.728,705.998,371.578,696.748 C371.268,688.808,369.228,681.028,369.458,673.068 C369.558,668.028,367.628,663.228,367.638,658.208 C367.588,652.938,367.888,647.628,366.938,642.418 C366.388,639.518,367.438,636.658,367.868,633.818 C369.128,627.868,367.488,621.528,369.888,615.788 C371.498,611.618,376.288,608.718,375.618,603.788 C375.868,600.418,374.408,597.268,372.188,594.818 C367.878,589.778,363.828,584.518,359.908,579.178 C349.788,562.428,336.708,547.778,324.398,532.658 C319.718,527.338,314.648,522.378,309.918,517.098 C302.918,508.478,293.828,501.628,287.958,492.078 C283.588,486.488,279.558,480.518,274.138,475.858 C265.178,467.588,256.528,458.948,247.238,451.048 C246.168,452.508,245.498,454.188,245.088,455.948 C241.178,457.288,242.968,461.638,242.888,464.708 C242.188,474.828,244.658,484.858,244.298,494.988 C244.038,501.718,245.498,508.348,245.478,515.078 C246.538,528.098,248.118,541.088,249.368,554.088 C248.898,560.258,251.588,566.058,251.268,572.208 C251.188,576.798,252.418,581.288,252.348,585.888 C252.308,590.158,253.498,594.328,253.388,598.608 C253.338,602.298,253.408,606.008,254.048,609.658 C255.048,617.238,253.678,624.968,255.208,632.508 C257.178,642.648,255.748,652.998,256.528,663.218 C258.018,675.108,256.928,687.138,257.718,699.068 C258.938,707.228,257.718,715.508,258.818,723.678 C260.038,731.918,258.508,740.348,260.408,748.518 C261.418,756.368,259.318,764.188,259.278,772.038 C259.508,783.038,259.598,794.058,259.268,805.058 C258.708,810.858,258.008,816.668,258.278,822.518 C258.688,829.418,255.498,835.868,255.388,842.718 C255.298,846.008,255.648,849.298,255.358,852.588 C255.018,855.408,253.978,858.098,253.648,860.938 C252.998,874.708,246.278,887.848,248.118,901.778 C247.058,906.138,245.128,910.318,245.138,914.898 C243.788,923.178,243.758,931.648,241.518,939.768 C241.318,946.538,240.198,953.228,239.578,959.958 C239.808,965.818,238.318,971.538,238.348,977.378 C238.238,984.508,235.708,991.388,235.548,998.518 C237.028,1008.2,234.238,1017.84,233.478,1027.46 C233.498,1031.94,233.088,1036.41,233.058,1040.9 C233.358,1045.99,233.828,1051.12,232.948,1056.19 C231.448,1065.24,233.138,1074.45,232.158,1083.54 C230.758,1091.04,232.358,1098.68,231.828,1106.24 C231.448,1109.16,231.108,1112.12,231.608,1115.06 C232.788,1121.83,232.478,1128.75,232.178,1135.59 C231.308,1141.26,232.518,1146.93,232.268,1152.62 C232.138,1156.87,233.108,1161.61,236.648,1164.35 C241.238,1167.61,247.138,1167.49,252.528,1167.65 C263.738,1168.72,275.068,1170.45,286.318,1168.74 C298.538,1168.83,310.758,1168.29,322.988,1168.54 C328.648,1168.84,334.178,1167.05,339.848,1167.53 C347.118,1168.15,354.258,1166.38,361.498,1166.18 C360.998,1162.26,361.998,1158.43,363.928,1155.03 C366.578,1150.37,364.198,1142.78,370.098,1140.23 C370.298,1139.37,370.548,1138.52,370.778,1137.71 C371.278,1137.62,372.278,1137.43,372.778,1137.34 C373.858,1138.09,374.878,1138.93,375.958,1139.71 C376.978,1138.99,377.838,1138.06,378.868,1137.37 C385.248,1141.01,390.328,1147.53,391.008,1155 C391.988,1161.63,391.208,1168.34,391.308,1175.02 C391.348,1177.89,391.098,1180.76,390.718,1183.61 C390.068,1191.39,391.068,1199.27,389.808,1207.02 C389.118,1211.77,388.848,1216.58,388.148,1221.34 C386.488,1222.89,384.068,1222.58,381.978,1222.7 C376.968,1222.67,371.948,1222.77,366.938,1222.68 C362.898,1222.89,360.738,1218.49,356.908,1217.89 C349.558,1216.77,342.278,1219.25,334.898,1218.71 C327.228,1219.28,320.578,1214.14,312.948,1214.53 C303.688,1214.64,294.438,1214.55,285.178,1214.55 C280.418,1214.61,275.708,1213.12,270.948,1213.92 C265.058,1215.14,259.208,1213.16,253.288,1213.47 C248.318,1213.65,242.938,1210.96,238.258,1213.45 C232.598,1216.89,234.248,1225.3,228.728,1228.8 C223.668,1232.74,216.948,1231.31,211.028,1231.55 C208.698,1231.8,207.138,1229.75,206.038,1228.02 C203.608,1224.14,205.708,1218.98,202.818,1215.32 C198.918,1209.67,191.188,1209.84,185.998,1205.95 C179.128,1202.15,173.688,1193.95,176.008,1185.94 C177.038,1179.78,182.028,1175.4,186.788,1171.88 C189.318,1169.92,192.598,1169.64,195.518,1168.61 C200.698,1166.37,204.398,1161.11,204.518,1155.43 C204.678,1147.25,203.878,1139.03,204.948,1130.89 C205.438,1127.04,204.018,1123.22,204.718,1119.38 C205.248,1116.24,205.688,1113.06,205.298,1109.89 C204.578,1102.27,204.888,1094.62,205.278,1087.01 C203.998,1081.01,205.738,1075.05,205.508,1069.03 C205.658,1062.69,205.048,1056.31,206.078,1050.02 C206.758,1045.49,206.428,1040.9,205.718,1036.41 C204.738,1030.26,206.828,1024.23,206.688,1018.08 C207.548,1012.16,207.688,1006.19,207.188,1000.23 C207.638,994.968,207.318,989.678,207.848,984.448 C209.498,977.798,209.758,970.958,209.628,964.148 C209.468,960.598,211.588,957.438,211.498,953.908 C211.528,950.428,211.308,946.948,211.458,943.478 C211.548,939.288,212.958,935.278,213.388,931.128 C214.048,924.398,215.788,917.818,216.258,911.058 C216.468,905.078,217.438,899.158,217.658,893.188 C218.688,887.438,221.198,881.978,221.278,876.058 C221.268,869.158,223.978,862.648,224.348,855.798 C224.578,846.908,225.608,838.048,227.468,829.358 C229.068,822.338,227.808,815.098,229.078,808.048 C229.828,803.348,229.198,798.578,229.788,793.888 C230.258,790.198,232.558,786.628,231.278,782.868 C230.188,779.578,231.458,776.228,231.448,772.898 C231.528,764.958,231.088,756.968,232.148,749.078 C232.418,746.788,232.198,744.488,231.838,742.228 C230.938,736.658,231.568,731.008,231.448,725.408 C231.408,716.788,230.548,708.208,230.778,699.598 C230.648,695.438,228.858,691.438,229.448,687.238 C230.148,681.608,229.598,675.958,229.358,670.318 C228.168,660.108,228.018,649.818,226.608,639.618 C226.448,632.308,226.258,624.998,224.988,617.778 C224.008,613.468,226.098,609.078,224.658,604.818 C223.538,600.908,223.678,596.828,223.268,592.828 C220.598,580.158,220.998,567.108,218.768,554.368 C217.098,545.998,218.048,537.378,216.038,529.068 C215.148,521.558,215.058,513.928,213.368,506.518 C211.338,497.458,212.008,488.068,210.148,478.988 C209.138,474.048,209.548,468.988,208.958,464.018 C208.298,458.288,207.968,452.458,208.878,446.738 C209.778,442.258,207.238,437.668,209.128,433.268 C210.498,427.548,216.658,425.338,219.568,420.608 C223.268,416.108,224.248,409.798,228.898,406.038 C231.738,403.548,233.768,400.308,236.488,397.718 z M612.438,448.528 C615.648,447.598,618.988,450.278,619.878,453.278 C621.698,462.898,621.158,473.098,617.058,482.098 C615.308,485.218,613.098,488.648,609.428,489.638 C604.268,491.098,598.408,491.068,593.598,488.518 C589.828,486.298,587.218,482.158,582.708,481.248 C577.648,480.178,572.368,479.228,567.218,480.318 C561.948,481.538,557.218,478.398,552.248,477.298 C552.318,476.038,552.298,474.778,552.358,473.528 C555.498,470.858,559.388,469.358,563.388,468.548 C563.548,468.028,563.848,466.978,563.998,466.458 C565.408,467.688,567.238,468.158,568.828,469.088 C569.638,468.138,570.408,467.148,571.198,466.178 C572.038,466.858,572.668,467.738,573.488,468.468 C576.958,466.988,581.038,465.928,582.968,462.358 C584.048,462.788,585.188,463.108,586.278,463.568 C589.078,459.448,594.788,460.288,598.428,457.378 C602.768,453.968,607.058,450.178,612.438,448.528 z M387.878,1054.02 C389.058,1052.78,390.138,1051.45,391.358,1050.26 C393.938,1054.95,391.468,1060.33,392.478,1065.33 C393.428,1070.19,393.558,1075.15,393.968,1080.09 C393.968,1083.38,392.868,1086.56,392.498,1089.83 C391.878,1095.52,388.818,1100.76,389.268,1106.6 C388.908,1106.58,388.188,1106.53,387.828,1106.51 C387.548,1105.62,387.258,1104.75,386.948,1103.9 C384.848,1105.27,383.078,1107.09,381.678,1109.18 C378.608,1105.77,375.118,1102.58,370.698,1101.09 C368.268,1090.93,369.108,1080.26,370.708,1070.03 C370.878,1067.6,372.938,1066.12,374.338,1064.38 C376.138,1062.36,375.678,1059.26,377.248,1057.17 C380.248,1054.91,384.118,1053.69,387.878,1054.02 z"/>
            </defs>
            <use xlink:href="#28" style="fill:#000000;fill-opacity:0;fill-rule:nonzero;opacity:1;stroke:none;"/>
          </g>
        </defs>
        <use xlink:href="#27"/>
      </g>
      <linearGradient x1="175.465" y1="650" x2="1124.54" y2="650" gradientUnits="userSpaceOnUse" id="31">
        <stop style="stop-color:#000000;stop-opacity:1;"/>
        <stop offset="1" style="stop-color:#ff0000;stop-opacity:1;"/>
      </linearGradient>
      <defs>
        <title>Group</title>
        <g id="29">
          <defs>
            <path id="30" d="M456.118,71.2882 C459.588,69.0782,463.968,67.4082,468.018,69.0482 C470.868,70.4582,473.648,72.7082,474.558,75.8782 C476.238,81.5482,477.348,87.4182,477.428,93.3382 C478.538,105.388,479.018,117.528,481.178,129.468 C481.388,137.798,483.428,145.898,484.448,154.138 C485.068,157.608,485.948,162.348,490.058,163.188 C500.198,164.508,510.308,162.828,520.368,161.728 C527.778,161.988,534.888,159.528,542.258,159.428 C547.698,159.138,553.018,157.938,558.348,156.908 C562.928,156.528,567.538,156.348,572.108,155.718 C579.208,155.588,586.078,153.248,593.218,153.518 C599.708,152.658,606.298,153.048,612.748,151.878 C619.028,151.118,625.348,152.138,631.648,151.808 C637.918,151.368,644.258,152.208,650.468,150.938 C656.838,149.738,663.108,152.168,669.488,151.758 C678.648,151.268,687.818,151.698,696.978,151.398 C705.938,150.358,714.628,147.578,723.608,146.638 C732.558,146.288,741.508,146.528,750.458,146.598 C757.408,146.468,764.038,148.968,770.938,149.468 C779.988,150.088,788.059,154.698,796.858,156.478 C802.418,157.688,807.378,160.628,812.778,162.348 C818.678,164.258,824.118,167.368,830.118,169.028 C836.478,170.828,841.998,174.708,848.348,176.538 C853.728,178.058,858.858,180.278,864.128,182.148 C869.278,183.898,872.908,188.608,878.319,189.758 C882.558,190.898,887.418,190.208,891.148,192.898 C894.358,195.028,897.528,197.258,901.088,198.808 C908.568,201.938,915.798,205.808,922.268,210.708 C924.848,212.578,928.218,213.148,930.458,215.538 C931.838,216.918,933.488,217.978,935.268,218.798 C939.658,220.788,943.348,224.008,947.838,225.808 C949.378,229.248,952.768,231.118,955.488,233.508 C957.948,235.668,960.559,237.698,962.788,240.118 C965.678,243.478,966.138,248.058,967.659,252.078 C967.928,253.588,969.738,253.528,970.878,254.058 C969.398,255.208,967.638,256.168,966.748,257.898 C966.068,259.688,966.268,261.648,966.308,263.528 C964.259,264.358,962.048,264.608,959.868,264.678 C959.118,263.218,958.518,261.628,957.328,260.468 C954.898,258.888,951.708,260.058,949.228,258.608 C947.328,257.558,945.608,256.228,943.678,255.258 C940.358,253.568,936.558,253.228,933.248,251.558 C930.548,250.098,929.189,246.998,926.548,245.528 C923.648,244.578,920.538,243.928,918.328,241.648 C913.798,237.418,907.448,236.558,902.028,233.958 C896.268,231.178,889.898,229.858,884.338,226.628 C879.738,224.038,874.708,222.268,869.608,220.968 C864.728,220.058,858.668,221.158,855.248,216.728 C852.718,213.208,848.078,214.038,844.468,212.658 C835.348,208.818,825.718,206.358,816.608,202.468 C811.418,200.018,805.648,199.218,800.458,196.808 C795.858,194.798,790.808,194.108,786.318,191.848 C779.978,188.538,772.738,188.078,765.908,186.358 C753.398,184.608,740.718,184.198,728.088,184.718 C718.468,185.988,708.828,187.908,700.088,192.258 C694.148,195.328,687.338,195.778,681.298,198.528 C677.128,200.568,672.348,199.388,667.898,199.578 C660.408,199.708,653.508,195.878,646.078,195.798 C640.358,196.738,634.568,196.648,628.798,196.598 C619.818,197.198,613.478,189.108,604.858,187.988 C599.858,186.508,594.908,189.078,589.948,187.838 C582.618,186.718,574.788,189.348,567.888,185.968 C564.528,184.878,560.978,184.278,557.908,182.448 C556.848,182.828,555.838,183.318,554.788,183.708 C554.218,182.708,553.718,181.678,553.118,180.708 C548.448,181.068,544.068,178.788,539.418,179.188 C537.498,179.288,535.568,179.338,533.648,179.368 C533.568,179.718,533.398,180.418,533.308,180.768 C531.788,180.018,530.308,178.508,528.478,178.988 C524.238,179.908,519.948,180.868,515.578,180.408 C515.508,181.138,515.458,181.868,515.418,182.608 C513.868,182.218,512.258,181.258,510.648,181.898 C507.218,183.198,504.238,185.388,500.978,187.018 C499.518,187.948,497.658,188.548,496.688,190.068 C496.028,192.068,495.818,194.178,495.658,196.278 C498.978,196.518,501.718,198.488,504.788,199.528 C508.638,199.638,512.478,197.668,516.288,199.098 C521.368,200.858,526.718,200.268,531.938,199.668 C532.238,200.588,532.528,201.518,532.838,202.438 C527.418,201.218,524.008,206.418,518.998,207.158 C513.568,208.558,507.928,208.758,502.458,209.938 C499.528,210.458,496.588,211.798,493.588,210.928 C491.508,215.038,486.568,213.148,482.928,213.758 C477.258,214.528,471.848,216.538,466.198,217.428 C458.328,218.818,450.238,221.968,442.218,219.758 C440.898,223.838,436.148,223.618,432.658,224.288 C430.988,224.648,429.318,224.188,427.768,223.598 C426.788,225.528,425.778,227.468,424.448,229.188 C424.368,227.778,424.378,226.368,424.328,224.968 C422.048,224.598,419.738,224.628,417.488,225.128 C414.878,221.238,410.958,218.558,407.698,215.278 C404.338,211.868,399.308,210.448,396.588,206.378 C392.538,200.378,391.328,193.098,388.508,186.548 C387.148,182.968,382.648,182.258,380.848,178.978 C379.208,175.958,376.478,172.678,377.858,169.048 C379.288,164.318,380.958,159.318,384.688,155.868 C386.648,154.068,388.318,151.998,389.818,149.808 C391.388,147.448,393.978,146.068,395.808,143.958 C397.228,141.948,397.778,139.418,399.458,137.588 C405.028,133.098,408.518,126.498,410.788,119.818 C411.738,117.848,413.568,116.428,414.368,114.368 C415.908,110.628,416.658,106.508,419.088,103.178 C422.168,98.9982,426.088,95.5182,429.358,91.4882 C432.848,86.9582,437.778,83.9182,441.748,79.8682 C445.748,75.8082,451.388,74.2582,456.118,71.2882 M438.108,144.168 C434.828,148.498,431.968,153.378,431.118,158.838 C433.488,159.858,435.918,159.378,437.218,157.008 C438.538,157.708,439.898,158.338,441.228,159.058 C441.308,157.958,441.408,156.868,441.508,155.778 C443.028,155.438,445.048,155.678,445.968,154.118 C448.738,150.078,448.718,144.978,449.468,140.308 C445.418,140.388,440.868,140.768,438.108,144.168 z M353.788,255.838 C356.658,252.958,360.738,251.538,364.748,251.468 C366.228,251.468,368.268,252.038,368.398,253.798 C368.868,256.668,368.648,259.748,367.248,262.338 C365.458,266.088,362.158,269.188,361.608,273.468 C360.538,281.138,355.448,287.288,351.478,293.658 C348.508,298.538,344.208,302.388,340.848,306.988 C339.718,308.238,338.728,310.018,336.938,310.348 C334.428,311.638,332.798,314.008,330.918,316.018 C326.378,321.338,321.508,326.798,319.648,333.708 C318.718,337.918,321.378,341.908,324.318,344.658 C332.458,352.138,339.698,360.698,348.858,367.008 C355.378,371.368,361.478,376.488,366.248,382.748 C369.128,386.608,372.988,390.058,374.068,394.958 C375.258,400.118,377.698,404.858,379.268,409.898 C380.098,413.158,383.478,415.258,383.538,418.758 C384.408,427.648,391.328,434.278,393.308,442.798 C395.728,450.978,400.588,458.168,403.188,466.278 C403.738,466.078,404.288,465.898,404.858,465.738 C405.458,467.518,406.068,469.338,407.198,470.878 C408.518,472.148,410.628,471.838,412.258,471.388 C415.228,464.688,414.068,457.148,414.648,450.048 C416.418,438.858,413.868,427.288,417.088,416.278 C419.088,409.848,419.588,402.948,422.698,396.898 C425.198,391.598,426.868,385.938,429.598,380.728 C431.228,377.878,430.748,373.828,433.798,371.898 C437.328,369.308,441.108,367.038,445.058,365.148 C449.578,363.018,454.688,363.738,459.518,363.538 C464.628,363.488,469.608,362.218,474.548,361.018 C482.348,359.778,490.328,359.838,498.058,358.118 C505.998,356.478,514.148,356.058,522.008,353.988 C529.398,351.988,537.178,351.868,544.478,349.478 C548.198,348.298,552.058,347.598,555.958,347.588 C561.368,347.668,566.258,344.768,571.638,344.618 C579.138,344.448,586.338,342.028,593.788,341.438 C597.758,341.158,601.578,339.978,605.188,338.318 C608.368,336.808,611.988,338.038,615.308,337.178 C618.198,336.238,620.868,334.728,623.768,333.768 C627.928,332.268,632.608,332.058,636.318,329.418 C639.558,327.238,643.158,325.548,647.068,325.028 C653.798,324.098,660.568,322.958,667.388,323.338 C673.818,323.758,680.138,322.048,686.568,322.488 C692.358,322.868,698.089,321.068,703.858,322.148 C709.548,323.038,715.228,320.758,720.898,322.008 C727.088,323.198,733.478,323.368,739.468,325.468 C745.928,327.638,753.008,327.568,759.148,330.738 C765.758,334.088,772.848,336.278,779.658,339.138 C787.238,340.688,793.798,345.428,799.048,350.948 C801.828,353.598,805.258,355.388,808.288,357.708 C814.369,362.438,821.418,365.708,827.448,370.518 C837.888,378.648,847.978,387.298,857.248,396.758 C861.408,402.318,866.488,407.348,869.288,413.808 C871.148,417.718,874.448,420.698,876.418,424.558 C879.198,430.208,884.038,434.438,887.018,439.968 C889.638,444.828,894.518,448.008,896.778,453.108 C898.358,456.508,900.028,459.868,901.698,463.238 C904.118,468.068,904.918,473.578,907.818,478.198 C910.608,482.638,912.348,487.758,912.448,493.038 C912.538,498.828,913.968,504.478,914.888,510.178 C916.388,521.898,915.948,534.188,911.068,545.138 C908.068,550.668,905.078,556.248,901.158,561.198 C893.158,572.808,886.528,585.518,876.438,595.538 C872.108,599.548,868.828,604.638,863.888,607.968 C858.918,611.288,854.788,615.748,849.478,618.538 C842.958,621.878,837.069,626.258,830.608,629.708 C825.518,632.698,819.998,634.888,815.048,638.128 C808.798,642.398,801.378,644.368,794.408,647.118 C794.788,647.838,795.198,648.548,795.618,649.268 C790.978,649.838,786.098,649.568,781.788,651.648 C777.298,653.978,772.108,653.288,767.318,654.378 C758.048,656.538,748.358,654.678,739.158,657.308 C733.228,659.338,726.788,657.778,720.888,659.968 C709.838,663.408,698.108,661.848,686.898,664.158 C675.798,665.078,665.048,668.638,653.848,668.698 C647.088,668.558,640.728,671.568,633.968,671.458 C626.418,671.408,618.818,672.078,611.328,670.758 C602.248,670.038,593.108,670.738,584.008,670.658 C577.948,671.868,571.608,670.978,565.688,672.938 C559.848,674.758,553.608,674.718,547.828,676.828 C539.718,678.618,532.378,683.288,523.938,683.598 C518.908,683.858,514.138,685.638,509.218,686.548 C506.028,687.218,502.468,687.718,500.198,690.308 C496.928,694.008,493.438,698.768,495.178,703.978 C495.848,719.138,495.248,734.338,495.488,749.518 C495.258,756.108,496.188,762.848,494.278,769.278 C493.038,773.108,494.598,777.098,493.778,780.978 C493.268,786.538,492.858,792.268,493.738,797.798 C496.598,801.958,502.448,801.618,506.938,801.608 C514.248,801.078,521.608,801.818,528.878,800.738 C540.688,800.278,552.528,800.988,564.338,800.318 C572.408,799.078,580.598,799.798,588.718,799.278 C596.458,798.168,604.288,798.568,612.088,798.378 C618.398,798.658,624.628,797.308,630.948,797.588 C638.278,797.918,645.758,796.798,652.968,798.628 C656.969,799.778,661.048,797.928,665.108,798.638 C672.238,799.958,679.568,799.958,686.738,798.918 C690.458,798.348,694.158,799.918,697.878,799.148 C702.198,798.418,706.538,797.708,710.938,797.908 C716.228,798.128,721.218,796.088,726.438,795.618 C730.358,795.238,734.088,793.618,738.068,793.598 C742.248,793.558,746.518,793.938,750.618,792.818 C755.238,791.478,760.618,791.988,764.378,788.498 C766.358,788.868,768.439,789.338,770.408,788.618 C777.408,786.398,784.768,788.208,791.908,788.338 C795.528,787.588,799.718,787.258,802.718,784.968 C806.268,778.718,813.148,775.878,818.228,771.128 C819.828,769.618,821.888,770.918,823.208,772.098 C823.218,770.608,823.258,769.118,823.358,767.658 C828.428,764.908,834.088,763.328,838.878,760.058 C848.878,753.498,859.018,747.038,870.028,742.298 C874.238,740.618,878.708,739.318,882.288,736.408 C887.739,732.008,894.358,729.438,899.878,725.128 C907.758,719.218,916.858,714.988,923.998,708.098 C927.319,704.988,931.428,702.938,935.008,700.178 C940.508,696.008,945.868,691.668,951.018,687.088 C953.858,684.358,958.239,684.008,960.798,680.898 C967.148,673.848,975.038,668.468,981.928,661.978 C1001.85,643.578,1020.62,623.928,1037.91,603.038 C1043.1,596.418,1048.09,589.528,1051.54,581.818 C1059.25,565.178,1068.93,549.568,1077.4,533.338 C1079.5,530.038,1082.05,526.988,1083.34,523.248 C1085.12,518.228,1087.91,513.468,1088.41,508.078 C1088.6,505.068,1089.89,502.338,1091.09,499.638 C1095.59,487.688,1097.22,474.908,1097.59,462.208 C1098.91,453.108,1096.98,443.978,1095.18,435.088 C1094.33,431.008,1093.69,426.868,1092.25,422.948 C1090.96,419.408,1088.07,416.598,1087.48,412.788 C1086.88,409.728,1084.16,407.548,1083.9,404.388 C1083.37,401.888,1083.72,399.078,1082.15,396.918 C1079.85,393.518,1077.18,390.278,1075.85,386.338 C1074.65,382.728,1073.11,379.228,1070.75,376.218 C1068.77,373.768,1068.47,370.558,1067.41,367.698 C1066.69,365.608,1064.78,364.338,1063.22,362.928 C1064.61,362.578,1067.03,363.078,1067.23,361.108 C1065.71,358.558,1063.45,355.918,1064.99,352.808 C1065.16,353.878,1065.35,354.948,1065.54,356.038 C1066.62,356.508,1067.72,356.948,1068.84,357.428 C1069.3,356.468,1069.78,355.508,1070.26,354.558 C1071.96,356.338,1073.87,358.178,1076.48,358.398 C1080.71,358.588,1083.23,362.358,1086.3,364.768 C1088.75,366.478,1088.38,369.798,1089.88,372.128 C1092.68,376.718,1097.54,379.818,1099.35,385.058 C1103.55,390.168,1106.15,396.288,1108.98,402.218 C1109.79,402.638,1110.61,403.058,1111.44,403.508 C1111.52,407.788,1115.1,410.758,1115.58,414.898 C1116.16,418.588,1119.3,421.288,1119.64,425.058 C1120.36,430.198,1121.89,435.168,1122.96,440.238 C1124.2,451.138,1124.87,462.108,1124.37,473.088 C1123.42,482.678,1123.04,492.348,1120.98,501.808 C1120.29,507.788,1117.77,513.298,1116.44,519.128 C1115.6,522.558,1113.42,525.588,1113.3,529.218 C1113.03,533.418,1110.01,536.668,1108.85,540.598 C1106.6,548.048,1102.6,554.798,1098.23,561.168 C1095.43,566.138,1093.56,571.608,1090.25,576.308 C1086.4,581.678,1084.34,588.098,1080.31,593.358 C1078.36,595.918,1077.17,598.918,1075.83,601.808 C1074.03,605.778,1070.32,608.388,1068.17,612.138 C1062.45,622.098,1054.94,630.868,1047.26,639.348 C1042.18,645.588,1035.82,650.588,1030.46,656.558 C1022.86,664.298,1015.19,671.968,1007.31,679.438 C1003.13,682.898,998.768,686.198,995.268,690.398 C989.898,696.748,982.768,701.208,976.798,706.938 C972.698,710.828,968.048,714.098,964.148,718.198 C961.888,720.868,957.968,721.598,956.388,724.888 C952.178,725.968,947.869,727.068,944.228,729.538 C941.409,731.448,940.098,735.258,936.498,736.018 C932.658,736.988,930.568,740.638,927.288,742.538 C924.518,744.138,922.458,746.638,919.848,748.408 C917.008,749.698,913.938,750.608,911.558,752.728 C907.668,756.118,902.578,757.558,898.488,760.628 C895.858,762.508,893.319,764.518,890.938,766.698 C890.369,766.468,889.828,766.208,889.308,765.928 C886.718,768.958,882.489,769.328,879.278,771.438 C870.888,776.438,861.758,779.938,853.148,784.488 C849.608,786.268,845.658,786.968,842.009,788.458 C838.668,790.078,836.078,793.158,832.259,793.718 C828.488,794.318,825.778,797.808,821.848,797.728 C811.549,797.818,802.178,803.168,791.888,803.498 C784.678,804.648,777.108,804.568,770.388,807.778 C764.879,810.728,758.558,807.868,752.788,809.518 C748.639,810.708,744.598,812.388,740.248,812.688 C734.338,813.198,729.438,817.018,723.688,818.108 C718.638,819.098,713.418,819.188,708.488,820.738 C705.228,821.748,702.228,823.498,698.898,824.308 C689.868,825.118,680.638,824.818,671.808,827.158 C665.809,828.268,659.668,827.298,653.648,828.128 C644.568,829.228,635.418,828.478,626.308,828.808 C619.158,830.038,611.888,829.148,604.708,829.958 C601.448,830.358,598.198,829.608,594.938,829.598 C591.248,829.548,587.638,830.628,583.948,830.548 C579.598,830.638,575.258,829.098,570.948,830.178 C564.848,831.668,558.568,831.098,552.358,831.248 C547.868,830.518,543.328,830.678,538.828,831.188 C531.848,830.908,524.888,831.788,517.908,831.488 C511.509,831.248,505.248,832.998,498.848,832.728 C489.159,832.228,479.468,834.898,469.818,833.218 C465.108,831.898,460.258,828.858,458.598,824.038 C457.788,816.098,460.498,808.368,462.078,800.688 C462.638,796.608,462.268,792.458,462.938,788.398 C463.728,783.018,462.988,777.558,463.758,772.188 C464.628,765.438,467.288,758.788,465.928,751.908 C466.198,744.648,466.338,737.308,467.878,730.168 C469.208,724.908,467.368,719.598,467.948,714.288 C465.788,707.338,466.268,700.048,466.368,692.868 C466.598,688.088,468.368,683.498,468.298,678.688 C467.938,672.778,471.368,667.398,475.058,663.098 C481.198,658.128,488.868,654.688,496.809,654.208 C501.108,653.638,505.328,652.448,509.708,652.528 C514.768,652.728,519.328,650.198,524.168,649.158 C528.198,648.338,531.938,646.528,535.968,645.718 C542.168,645.098,548.108,643.078,554.298,642.318 C562.088,640.278,570.118,639.188,578.178,639.508 C587.418,638.788,596.728,638.438,605.968,639.458 C614.318,639.948,622.728,638.888,631.048,640.158 C637.038,641.018,643.138,640.098,649.118,641.118 C652.608,641.668,656.128,641.138,659.648,641.198 C674.118,641.678,688.618,641.848,703.098,641.468 C708.038,640.638,713.288,641.218,717.948,639.098 C722.278,637.118,727.208,637.598,731.658,635.968 C736.178,634.408,740.949,633.928,745.668,633.348 C748.868,632.398,751.358,629.628,754.868,629.528 C762.419,628.658,768.398,623.428,775.608,621.488 C787.788,617.868,798.978,611.688,809.398,604.528 C816.388,599.728,824.328,596.438,830.898,591.048 C835.768,587.158,841.448,584.388,846.038,580.128 C851.678,575.448,856.188,569.638,861.258,564.378 C865.228,560.358,866.968,554.858,870.028,550.228 C874.578,542.578,882.118,536.488,884.208,527.518 C884.468,520.398,885.908,513.268,884.598,506.158 C884.548,500.648,881.668,495.688,881.458,490.208 C881.438,485.688,878.638,481.998,876.818,478.078 C874.948,474.298,873.928,470.058,871.188,466.768 C869.008,464.158,866.958,461.428,865.489,458.348 C862.678,452.588,858.458,447.588,856.288,441.518 C854.378,435.928,849.658,432.038,847.078,426.808 C845.168,422.398,839.948,421.488,836.838,418.198 C832.708,414.238,826.568,413.468,822.558,409.398 C815.748,402.558,806.638,398.798,799.098,392.898 C793.248,388.018,785.958,385.518,779.598,381.448 C772.938,378.198,766.908,373.718,759.878,371.238 C747.928,366.488,735.799,361.198,722.788,360.558 C716.128,360.728,709.568,359.158,702.908,359.448 C696.108,359.208,689.398,360.728,682.608,360.498 C677.408,360.338,672.638,362.698,667.698,363.918 C657.888,366.748,647.538,366.888,637.768,369.858 C633.748,371.078,629.638,371.928,625.528,372.768 C620.958,373.678,616.608,375.418,612.018,376.248 C608.708,376.838,605.378,377.368,602.168,378.368 C594.028,381.008,585.458,382.198,576.938,382.588 C573.148,382.958,569.808,385.208,565.978,385.368 C559.578,385.518,553.558,387.958,547.228,388.638 C539.218,389.918,531.028,390.148,523.198,392.418 C510.988,395.028,498.678,397.368,486.218,398.468 C479.128,399.228,472.138,400.768,465.138,402.138 C462.088,402.918,458.368,403.698,456.768,406.728 C451.768,417.818,452.978,430.228,450.898,441.938 C449.798,448.558,450.998,455.308,449.918,461.918 C448.518,470.478,450.248,479.198,448.858,487.748 C447.918,494.238,448.638,500.808,448.568,507.338 C448.378,515.398,450.598,523.528,448.488,531.498 C447.028,537.148,446.508,543.838,441.678,547.788 C438.428,549.938,434.398,550.318,430.668,551.038 C427.108,552.008,424.268,549.088,421.218,547.808 C415.398,544.538,407.778,545.098,402.928,540.058 C393.148,530.188,387.918,517.038,382.378,504.558 C376.228,493.318,371.678,481.318,366.198,469.758 C363.408,463.728,361.338,457.408,358.538,451.388 C356.438,447.008,356.598,441.958,354.388,437.628 C351.018,430.868,350.598,422.948,346.368,416.578 C343.868,412.848,342.088,408.398,338.248,405.808 C328.798,398.648,319.988,390.718,311.358,382.608 C304.308,374.418,297.588,365.708,288.968,359.068 C282.868,354.228,274.628,353.298,268.628,348.368 C264.218,343.838,260.128,337.408,261.718,330.828 C264.038,325.048,268.438,320.218,273.498,316.678 C278.048,313.558,281.678,309.298,286.338,306.328 C290.218,303.478,295.038,302.038,298.448,298.548 C299.828,297.278,300.998,295.698,302.698,294.828 C309.338,291.908,316.778,289.428,321.338,283.448 C324.758,279.478,328.858,276.148,333.288,273.368 C337.418,270.878,339.298,266.038,343.358,263.448 C346.948,261.068,350.678,258.858,353.788,255.838 z M236.488,397.718 C242.858,396.918,250.178,397.328,255.368,401.538 C259.258,406.008,263.968,409.838,266.918,415.058 C269.688,419.248,273.028,423.008,275.818,427.188 C283.998,436.958,293.848,445.188,302.108,454.908 C306.758,459.338,309.968,464.978,314.328,469.678 C318.128,473.938,320.558,479.298,324.938,483.068 C334.058,491.338,340.988,501.628,349.878,510.108 C353.898,513.848,356.318,518.898,360.128,522.818 C364.958,527.828,367.998,534.168,372.408,539.518 C381.358,551.888,389.948,564.538,399.628,576.358 C402.848,581.038,407.918,584.458,413.478,585.628 C416.298,582.408,418.208,578.428,421.418,575.518 C422.548,574.508,423.738,573.028,425.448,573.388 C427.168,579.198,428.058,585.378,427.278,591.438 C425.968,598.158,426.408,605.028,425.468,611.798 C425.638,620.038,423.778,628.088,422.728,636.218 C421.688,647.578,418.258,658.658,418.348,670.128 C417.608,679.088,415.978,687.988,416.048,696.998 C416.148,702.708,415.318,708.378,414.578,714.018 C414.138,717.388,415.058,720.728,415.148,724.088 C414.728,728.098,413.368,731.978,413.468,736.058 C413.498,740.938,412.798,745.808,411.428,750.498 C410.668,753.308,409.438,756.128,409.928,759.118 C410.528,762.868,408.998,766.468,408.578,770.158 C408.148,776.788,407.678,783.418,407.078,790.028 C404.618,800.878,404.518,812.108,401.848,822.918 C399.608,831.448,400.358,840.358,401.278,849.008 C401.578,857.358,401.148,865.738,402.068,874.058 C400.948,891.658,402.448,909.358,400.638,926.928 C400.248,931.728,401.538,936.438,401.428,941.238 C401.348,946.768,401.808,952.368,400.748,957.848 C399.488,965.288,401.528,972.988,399.338,980.318 C398.178,984.638,398.438,989.148,397.798,993.558 C397.048,999.328,397.948,1005.2,396.868,1010.95 C395.938,1016.19,394.318,1021.38,394.508,1026.77 C394.378,1029.62,395.048,1032.88,393.168,1035.34 C391.798,1037.15,390.248,1039.46,387.768,1039.62 C385.058,1040.31,385.818,1036.33,384.978,1034.75 C382.398,1033.7,379.508,1033.86,376.928,1032.89 C375.268,1030.83,375.148,1027.97,374.358,1025.52 C371.448,1015.96,372.758,1005.88,372.548,996.058 C372.678,988.748,372.068,981.398,373.108,974.128 C373.848,966.628,372.888,959.018,374.548,951.598 C376.348,943.518,374.978,935.198,376.008,927.048 C376.798,921.038,375.058,915.078,375.388,909.068 C375.678,903.288,374.018,897.588,374.768,891.818 C375.588,885.238,373.238,878.808,373.458,872.248 C373.608,865.348,373.708,858.418,372.498,851.598 C370.858,842.478,371.818,833.208,371.478,824.008 C371.808,815.308,369.898,806.748,370.388,798.048 C370.798,787.898,369.838,777.668,371.388,767.588 C371.718,762.738,371.238,757.838,372.098,753.028 C372.858,743.608,372.088,734.108,372.908,724.698 C374.378,715.368,372.728,705.998,371.578,696.748 C371.268,688.808,369.228,681.028,369.458,673.068 C369.558,668.028,367.628,663.228,367.638,658.208 C367.588,652.938,367.888,647.628,366.938,642.418 C366.388,639.518,367.438,636.658,367.868,633.818 C369.128,627.868,367.488,621.528,369.888,615.788 C371.498,611.618,376.288,608.718,375.618,603.788 C375.868,600.418,374.408,597.268,372.188,594.818 C367.878,589.778,363.828,584.518,359.908,579.178 C349.788,562.428,336.708,547.778,324.398,532.658 C319.718,527.338,314.648,522.378,309.918,517.098 C302.918,508.478,293.828,501.628,287.958,492.078 C283.588,486.488,279.558,480.518,274.138,475.858 C265.178,467.588,256.528,458.948,247.238,451.048 C246.168,452.508,245.498,454.188,245.088,455.948 C241.178,457.288,242.968,461.638,242.888,464.708 C242.188,474.828,244.658,484.858,244.298,494.988 C244.038,501.718,245.498,508.348,245.478,515.078 C246.538,528.098,248.118,541.088,249.368,554.088 C248.898,560.258,251.588,566.058,251.268,572.208 C251.188,576.798,252.418,581.288,252.348,585.888 C252.308,590.158,253.498,594.328,253.388,598.608 C253.338,602.298,253.408,606.008,254.048,609.658 C255.048,617.238,253.678,624.968,255.208,632.508 C257.178,642.648,255.748,652.998,256.528,663.218 C258.018,675.108,256.928,687.138,257.718,699.068 C258.938,707.228,257.718,715.508,258.818,723.678 C260.038,731.918,258.508,740.348,260.408,748.518 C261.418,756.368,259.318,764.188,259.278,772.038 C259.508,783.038,259.598,794.058,259.268,805.058 C258.708,810.858,258.008,816.668,258.278,822.518 C258.688,829.418,255.498,835.868,255.388,842.718 C255.298,846.008,255.648,849.298,255.358,852.588 C255.018,855.408,253.978,858.098,253.648,860.938 C252.998,874.708,246.278,887.848,248.118,901.778 C247.058,906.138,245.128,910.318,245.138,914.898 C243.788,923.178,243.758,931.648,241.518,939.768 C241.318,946.538,240.198,953.228,239.578,959.958 C239.808,965.818,238.318,971.538,238.348,977.378 C238.238,984.508,235.708,991.388,235.548,998.518 C237.028,1008.2,234.238,1017.84,233.478,1027.46 C233.498,1031.94,233.088,1036.41,233.058,1040.9 C233.358,1045.99,233.828,1051.12,232.948,1056.19 C231.448,1065.24,233.138,1074.45,232.158,1083.54 C230.758,1091.04,232.358,1098.68,231.828,1106.24 C231.448,1109.16,231.108,1112.12,231.608,1115.06 C232.788,1121.83,232.478,1128.75,232.178,1135.59 C231.308,1141.26,232.518,1146.93,232.268,1152.62 C232.138,1156.87,233.108,1161.61,236.648,1164.35 C241.238,1167.61,247.138,1167.49,252.528,1167.65 C263.738,1168.72,275.068,1170.45,286.318,1168.74 C298.538,1168.83,310.758,1168.29,322.988,1168.54 C328.648,1168.84,334.178,1167.05,339.848,1167.53 C347.118,1168.15,354.258,1166.38,361.498,1166.18 C360.998,1162.26,361.998,1158.43,363.928,1155.03 C366.578,1150.37,364.198,1142.78,370.098,1140.23 C370.298,1139.37,370.548,1138.52,370.778,1137.71 C371.278,1137.62,372.278,1137.43,372.778,1137.34 C373.858,1138.09,374.878,1138.93,375.958,1139.71 C376.978,1138.99,377.838,1138.06,378.868,1137.37 C385.248,1141.01,390.328,1147.53,391.008,1155 C391.988,1161.63,391.208,1168.34,391.308,1175.02 C391.348,1177.89,391.098,1180.76,390.718,1183.61 C390.068,1191.39,391.068,1199.27,389.808,1207.02 C389.118,1211.77,388.848,1216.58,388.148,1221.34 C386.488,1222.89,384.068,1222.58,381.978,1222.7 C376.968,1222.67,371.948,1222.77,366.938,1222.68 C362.898,1222.89,360.738,1218.49,356.908,1217.89 C349.558,1216.77,342.278,1219.25,334.898,1218.71 C327.228,1219.28,320.578,1214.14,312.948,1214.53 C303.688,1214.64,294.438,1214.55,285.178,1214.55 C280.418,1214.61,275.708,1213.12,270.948,1213.92 C265.058,1215.14,259.208,1213.16,253.288,1213.47 C248.318,1213.65,242.938,1210.96,238.258,1213.45 C232.598,1216.89,234.248,1225.3,228.728,1228.8 C223.668,1232.74,216.948,1231.31,211.028,1231.55 C208.698,1231.8,207.138,1229.75,206.038,1228.02 C203.608,1224.14,205.708,1218.98,202.818,1215.32 C198.918,1209.67,191.188,1209.84,185.998,1205.95 C179.128,1202.15,173.688,1193.95,176.008,1185.94 C177.038,1179.78,182.028,1175.4,186.788,1171.88 C189.318,1169.92,192.598,1169.64,195.518,1168.61 C200.698,1166.37,204.398,1161.11,204.518,1155.43 C204.678,1147.25,203.878,1139.03,204.948,1130.89 C205.438,1127.04,204.018,1123.22,204.718,1119.38 C205.248,1116.24,205.688,1113.06,205.298,1109.89 C204.578,1102.27,204.888,1094.62,205.278,1087.01 C203.998,1081.01,205.738,1075.05,205.508,1069.03 C205.658,1062.69,205.048,1056.31,206.078,1050.02 C206.758,1045.49,206.428,1040.9,205.718,1036.41 C204.738,1030.26,206.828,1024.23,206.688,1018.08 C207.548,1012.16,207.688,1006.19,207.188,1000.23 C207.638,994.968,207.318,989.678,207.848,984.448 C209.498,977.798,209.758,970.958,209.628,964.148 C209.468,960.598,211.588,957.438,211.498,953.908 C211.528,950.428,211.308,946.948,211.458,943.478 C211.548,939.288,212.958,935.278,213.388,931.128 C214.048,924.398,215.788,917.818,216.258,911.058 C216.468,905.078,217.438,899.158,217.658,893.188 C218.688,887.438,221.198,881.978,221.278,876.058 C221.268,869.158,223.978,862.648,224.348,855.798 C224.578,846.908,225.608,838.048,227.468,829.358 C229.068,822.338,227.808,815.098,229.078,808.048 C229.828,803.348,229.198,798.578,229.788,793.888 C230.258,790.198,232.558,786.628,231.278,782.868 C230.188,779.578,231.458,776.228,231.448,772.898 C231.528,764.958,231.088,756.968,232.148,749.078 C232.418,746.788,232.198,744.488,231.838,742.228 C230.938,736.658,231.568,731.008,231.448,725.408 C231.408,716.788,230.548,708.208,230.778,699.598 C230.648,695.438,228.858,691.438,229.448,687.238 C230.148,681.608,229.598,675.958,229.358,670.318 C228.168,660.108,228.018,649.818,226.608,639.618 C226.448,632.308,226.258,624.998,224.988,617.778 C224.008,613.468,226.098,609.078,224.658,604.818 C223.538,600.908,223.678,596.828,223.268,592.828 C220.598,580.158,220.998,567.108,218.768,554.368 C217.098,545.998,218.048,537.378,216.038,529.068 C215.148,521.558,215.058,513.928,213.368,506.518 C211.338,497.458,212.008,488.068,210.148,478.988 C209.138,474.048,209.548,468.988,208.958,464.018 C208.298,458.288,207.968,452.458,208.878,446.738 C209.778,442.258,207.238,437.668,209.128,433.268 C210.498,427.548,216.658,425.338,219.568,420.608 C223.268,416.108,224.248,409.798,228.898,406.038 C231.738,403.548,233.768,400.308,236.488,397.718 z M612.438,448.528 C615.648,447.598,618.988,450.278,619.878,453.278 C621.698,462.898,621.158,473.098,617.058,482.098 C615.308,485.218,613.098,488.648,609.428,489.638 C604.268,491.098,598.408,491.068,593.598,488.518 C589.828,486.298,587.218,482.158,582.708,481.248 C577.648,480.178,572.368,479.228,567.218,480.318 C561.948,481.538,557.218,478.398,552.248,477.298 C552.318,476.038,552.298,474.778,552.358,473.528 C555.498,470.858,559.388,469.358,563.388,468.548 C563.548,468.028,563.848,466.978,563.998,466.458 C565.408,467.688,567.238,468.158,568.828,469.088 C569.638,468.138,570.408,467.148,571.198,466.178 C572.038,466.858,572.668,467.738,573.488,468.468 C576.958,466.988,581.038,465.928,582.968,462.358 C584.048,462.788,585.188,463.108,586.278,463.568 C589.078,459.448,594.788,460.288,598.428,457.378 C602.768,453.968,607.058,450.178,612.438,448.528 z M387.878,1054.02 C389.058,1052.78,390.138,1051.45,391.358,1050.26 C393.938,1054.95,391.468,1060.33,392.478,1065.33 C393.428,1070.19,393.558,1075.15,393.968,1080.09 C393.968,1083.38,392.868,1086.56,392.498,1089.83 C391.878,1095.52,388.818,1100.76,389.268,1106.6 C388.908,1106.58,388.188,1106.53,387.828,1106.51 C387.548,1105.62,387.258,1104.75,386.948,1103.9 C384.848,1105.27,383.078,1107.09,381.678,1109.18 C378.608,1105.77,375.118,1102.58,370.698,1101.09 C368.268,1090.93,369.108,1080.26,370.708,1070.03 C370.878,1067.6,372.938,1066.12,374.338,1064.38 C376.138,1062.36,375.678,1059.26,377.248,1057.17 C380.248,1054.91,384.118,1053.69,387.878,1054.02 z"/>
          </defs>
          <use xlink:href="#30" style="fill:url(#31);fill-opacity:1;fill-rule:nonzero;mix-blend-mode:soft-light;opacity:1;stroke:none;"/>
        </g>
      </defs>
      <use xlink:href="#29"/>
    </g>
  </g>
</svg>
